<svg width="662" height="516" viewBox="0 0 662 516" fill="none" xmlns="http://www.w3.org/2000/svg">
<path d="M307.494 53.2882C302.978 53.2882 298.781 55.4665 296.178 59.1856C295.009 58.7074 293.734 58.4949 292.459 58.4949C286.721 58.4949 282.045 63.1703 282.045 68.9083C282.045 69.2271 282.045 69.599 282.098 69.9178C275.829 70.3428 270.941 75.5496 270.941 81.872C270.941 88.4601 276.254 93.773 282.789 93.8262H282.895H320.246C327.896 93.8262 334.059 87.6631 334.059 80.0124C334.059 72.7868 328.481 66.7832 321.255 66.2519C320.83 58.9731 314.826 53.2882 307.494 53.2882Z" fill="#DFE7F6"/>
<path d="M124.676 297.101C120.585 297.101 116.76 299.119 114.422 302.413C113.359 301.988 112.19 301.776 111.075 301.776C105.868 301.776 101.618 306.026 101.618 311.233C101.618 311.552 101.618 311.871 101.671 312.136C95.9859 312.508 91.5761 317.237 91.5761 322.922C91.5761 328.872 96.3578 333.707 102.308 333.76H102.415H136.205C143.112 333.76 148.691 328.181 148.691 321.275C148.691 314.74 143.643 309.32 137.108 308.842C136.736 302.201 131.264 297.101 124.676 297.101Z" fill="#DFE7F6"/>
<path opacity="0.5" d="M59.0487 376.245C59.0487 376.245 58.7831 353.506 101.499 356.162C125.408 357.65 144.747 338.257 167.54 318.546C186.56 302.129 221.147 265.098 282.406 268.445C353.547 272.323 366.935 376.245 366.935 376.245H59.0487V376.245Z" fill="#DFE7F6"/>
<path d="M131.648 459.942L195.085 459.942L195.085 455.055L131.648 455.055L131.648 459.942Z" fill="#3D92F9"/>
<path fill-rule="evenodd" clip-rule="evenodd" d="M196.436 459.942C196.436 460.689 195.831 461.293 195.085 461.293L131.648 461.293C130.902 461.293 130.298 460.689 130.298 459.942L130.298 455.055C130.298 454.308 130.902 453.704 131.648 453.704L195.085 453.704C195.831 453.704 196.436 454.308 196.436 455.055L196.436 459.942ZM193.734 458.591L193.734 456.405L132.999 456.405L132.999 458.591L193.734 458.591Z" fill="#2868F2"/>
<path d="M192.726 469.647C197.069 469.647 200.589 466.127 200.589 461.784C200.589 457.441 197.069 453.921 192.726 453.921C188.383 453.921 184.863 457.441 184.863 461.784C184.863 466.127 188.383 469.647 192.726 469.647Z" fill="white"/>
<path fill-rule="evenodd" clip-rule="evenodd" d="M192.726 455.272C189.129 455.272 186.214 458.187 186.214 461.784C186.214 465.381 189.129 468.296 192.726 468.296C196.322 468.296 199.238 465.381 199.238 461.784C199.238 458.187 196.322 455.272 192.726 455.272ZM183.512 461.784C183.512 456.695 187.637 452.57 192.726 452.57C197.815 452.57 201.94 456.695 201.94 461.784C201.94 466.873 197.815 470.998 192.726 470.998C187.637 470.998 183.512 466.873 183.512 461.784Z" fill="#2868F2"/>
<path d="M192.725 465.981C195.043 465.981 196.922 464.102 196.922 461.784C196.922 459.466 195.043 457.587 192.725 457.587C190.407 457.587 188.528 459.466 188.528 461.784C188.528 464.102 190.407 465.981 192.725 465.981Z" fill="#DFE7F6"/>
<path fill-rule="evenodd" clip-rule="evenodd" d="M192.725 458.938C191.153 458.938 189.879 460.212 189.879 461.784C189.879 463.356 191.153 464.63 192.725 464.63C194.297 464.63 195.571 463.356 195.571 461.784C195.571 460.212 194.297 458.938 192.725 458.938ZM187.177 461.784C187.177 458.72 189.661 456.236 192.725 456.236C195.789 456.236 198.273 458.72 198.273 461.784C198.273 464.848 195.789 467.332 192.725 467.332C189.661 467.332 187.177 464.848 187.177 461.784Z" fill="#2868F2"/>
<path d="M135.558 469.647C139.9 469.647 143.421 466.127 143.421 461.784C143.421 457.441 139.9 453.921 135.558 453.921C131.215 453.921 127.694 457.441 127.694 461.784C127.694 466.127 131.215 469.647 135.558 469.647Z" fill="white"/>
<path fill-rule="evenodd" clip-rule="evenodd" d="M135.557 455.272C131.961 455.272 129.045 458.187 129.045 461.784C129.045 465.381 131.961 468.296 135.557 468.296C139.154 468.296 142.07 465.381 142.07 461.784C142.07 458.187 139.154 455.272 135.557 455.272ZM126.343 461.784C126.343 456.695 130.469 452.57 135.557 452.57C140.646 452.57 144.772 456.695 144.772 461.784C144.772 466.873 140.646 470.998 135.557 470.998C130.469 470.998 126.343 466.873 126.343 461.784Z" fill="#2868F2"/>
<path d="M135.557 465.663C137.699 465.663 139.436 463.926 139.436 461.784C139.436 459.642 137.699 457.906 135.557 457.906C133.415 457.906 131.679 459.642 131.679 461.784C131.679 463.926 133.415 465.663 135.557 465.663Z" fill="#DFE7F6"/>
<path fill-rule="evenodd" clip-rule="evenodd" d="M135.557 459.257C134.161 459.257 133.03 460.388 133.03 461.784C133.03 463.18 134.161 464.312 135.557 464.312C136.953 464.312 138.085 463.18 138.085 461.784C138.085 460.388 136.953 459.257 135.557 459.257ZM130.328 461.784C130.328 458.896 132.669 456.555 135.557 456.555C138.445 456.555 140.786 458.896 140.786 461.784C140.786 464.672 138.445 467.013 135.557 467.013C132.669 467.013 130.328 464.672 130.328 461.784Z" fill="#2868F2"/>
<path d="M160.709 454.991L166.022 454.991L166.022 398.886L160.709 398.886L160.709 454.991Z" fill="#3D92F9"/>
<path fill-rule="evenodd" clip-rule="evenodd" d="M167.373 454.991C167.373 455.737 166.768 456.342 166.022 456.342L160.709 456.342C159.963 456.342 159.358 455.737 159.358 454.991L159.358 398.886C159.358 398.14 159.963 397.535 160.709 397.535L166.022 397.535C166.768 397.535 167.373 398.14 167.373 398.886L167.373 454.991ZM164.671 453.64L164.671 400.237L162.06 400.237L162.06 453.64L164.671 453.64Z" fill="#2868F2"/>
<path d="M157.893 425.556L168.891 425.556L168.891 398.885L157.893 398.885L157.893 425.556Z" fill="#3D92F9"/>
<path fill-rule="evenodd" clip-rule="evenodd" d="M170.242 425.556C170.242 426.302 169.637 426.907 168.891 426.907L157.893 426.907C157.147 426.907 156.542 426.302 156.542 425.556L156.542 398.885C156.542 398.139 157.147 397.534 157.893 397.534L168.891 397.534C169.637 397.534 170.242 398.139 170.242 398.885L170.242 425.556ZM167.54 424.205L167.54 400.236L159.244 400.236L159.244 424.205L167.54 424.205Z" fill="#2868F2"/>
<path fill-rule="evenodd" clip-rule="evenodd" d="M138.798 387.827H153.036L147.086 359.881H132.9L138.798 387.827Z" fill="white"/>
<path fill-rule="evenodd" clip-rule="evenodd" d="M131.234 358.53H148.179L154.705 389.178H137.702L131.234 358.53ZM134.566 361.232L139.893 386.476H151.367L145.992 361.232H134.566Z" fill="#2868F2"/>
<path fill-rule="evenodd" clip-rule="evenodd" d="M102.085 370.029H191.078C194.212 370.029 196.337 367.479 195.806 364.344L184.968 297.56C184.436 294.425 181.514 291.875 178.38 291.875H89.4404C86.3057 291.875 84.1805 294.425 84.7118 297.56L95.5503 364.344C96.0285 367.532 98.9506 370.029 102.085 370.029Z" fill="#DFE7F6"/>
<path fill-rule="evenodd" clip-rule="evenodd" d="M83.3789 297.781C82.7144 293.844 85.4505 290.524 89.4403 290.524H178.379C182.202 290.524 185.663 293.579 186.299 297.334L186.301 297.344L197.138 364.118C197.138 364.12 197.139 364.122 197.139 364.124C197.803 368.06 195.067 371.38 191.077 371.38H102.085C98.2791 371.38 94.7958 368.393 94.2154 364.553C94.215 364.55 94.2146 364.547 94.2142 364.545L83.3798 297.786C83.3795 297.784 83.3792 297.783 83.3789 297.781ZM89.4403 293.226C87.1624 293.226 85.6487 295.004 86.0437 297.334L86.0453 297.344L86.0452 297.344L96.8837 364.128L96.8862 364.144C97.266 366.676 99.6246 368.678 102.085 368.678H191.077C193.355 368.678 194.869 366.9 194.474 364.57L194.472 364.561L183.636 297.786C183.635 297.785 183.635 297.783 183.635 297.782C183.207 295.27 180.825 293.226 178.379 293.226H89.4403Z" fill="#2868F2"/>
<path fill-rule="evenodd" clip-rule="evenodd" d="M105.963 370.029H191.29C194.265 370.029 196.337 367.479 195.859 364.344L185.498 297.56C185.02 294.425 182.204 291.875 179.176 291.875H93.8497C90.8744 291.875 88.8024 294.425 89.2805 297.56L99.6408 364.344C100.172 367.532 102.988 370.029 105.963 370.029Z" fill="white"/>
<path fill-rule="evenodd" clip-rule="evenodd" d="M87.9449 297.764C87.3551 293.897 89.9624 290.524 93.8496 290.524H179.176C182.926 290.524 186.262 293.616 186.833 297.353M186.834 297.356L197.194 364.14C197.784 368.007 195.177 371.38 191.29 371.38H105.963C102.264 371.38 98.9372 368.341 98.3082 364.566L98.3069 364.559L87.9455 297.767L87.9449 297.764M90.6157 297.355C90.6158 297.355 90.6159 297.356 90.616 297.356L100.973 364.122C100.974 364.124 100.974 364.127 100.975 364.129C101.411 366.727 103.714 368.678 105.963 368.678H191.29C193.353 368.678 194.89 366.951 194.523 364.548C194.523 364.548 194.523 364.548 194.523 364.548L184.163 297.767L184.163 297.764C183.777 295.232 181.481 293.226 179.176 293.226H93.8496C91.7867 293.226 90.2501 294.953 90.6157 297.355Z" fill="#2868F2"/>
<path d="M107.685 399.914L219.098 399.914L219.098 387.854L107.685 387.854L107.685 399.914Z" fill="#DFE7F6"/>
<path fill-rule="evenodd" clip-rule="evenodd" d="M220.449 399.914C220.449 400.66 219.844 401.265 219.098 401.265L107.685 401.265C106.939 401.265 106.334 400.66 106.334 399.914L106.334 387.854C106.334 387.107 106.939 386.503 107.685 386.503L219.098 386.503C219.844 386.503 220.449 387.107 220.449 387.854L220.449 399.914ZM217.747 398.563L217.747 389.205L109.036 389.205L109.036 398.563L217.747 398.563Z" fill="#2868F2"/>
<path fill-rule="evenodd" clip-rule="evenodd" d="M331.711 375.926C333.995 375.661 336.067 377.254 336.333 379.539L346.64 461.89C346.906 464.175 345.312 466.247 343.027 466.512C340.743 466.778 338.671 465.184 338.405 462.9L328.098 380.549C327.779 378.317 329.426 376.245 331.711 375.926Z" fill="#DFE7F6"/>
<path fill-rule="evenodd" clip-rule="evenodd" d="M331.882 377.266C330.293 377.496 329.23 378.923 329.435 380.357L329.438 380.381L339.747 462.743C339.924 464.265 341.306 465.352 342.871 465.17C344.391 464.994 345.478 463.615 345.299 462.051C345.299 462.05 345.298 462.048 345.298 462.046L334.991 379.695C334.815 378.178 333.441 377.093 331.882 377.266ZM337.674 379.377C337.317 376.333 334.556 374.235 331.555 374.584C331.544 374.585 331.534 374.587 331.524 374.588C328.556 375.002 326.335 377.708 326.759 380.727L337.063 463.056C337.063 463.058 337.064 463.06 337.064 463.062C337.421 466.106 340.182 468.203 343.183 467.854C346.231 467.5 348.331 464.738 347.982 461.734L337.675 379.383C337.675 379.381 337.674 379.379 337.674 379.377Z" fill="#2868F2"/>
<path fill-rule="evenodd" clip-rule="evenodd" d="M90.3961 375.023C88.1115 374.757 86.0395 376.351 85.7738 378.636L75.201 462.793C74.9354 465.078 76.5293 467.15 78.8138 467.416C81.0984 467.681 83.1705 466.087 83.4361 463.803L94.0089 379.698C94.2746 377.414 92.6807 375.342 90.3961 375.023Z" fill="#DFE7F6"/>
<path fill-rule="evenodd" clip-rule="evenodd" d="M84.4327 378.473C84.7902 375.429 87.5504 373.332 90.5521 373.681C90.5624 373.682 90.5726 373.684 90.5828 373.685C93.5968 374.106 95.701 376.843 95.3508 379.854L95.3494 379.867L95.3493 379.867L84.778 463.959C84.7777 463.961 84.7775 463.963 84.7772 463.966C84.4196 467.009 81.6594 469.107 78.6578 468.758C75.6104 468.403 73.5098 465.641 73.8591 462.637L73.8605 462.625L73.8606 462.625L84.4319 378.48C84.4321 378.478 84.4324 378.475 84.4327 378.473ZM90.2247 376.363C88.6657 376.19 87.2921 377.275 87.1157 378.792L87.1143 378.804L87.1142 378.804L76.5429 462.949C76.5427 462.951 76.5425 462.953 76.5423 462.955C76.3635 464.518 77.4499 465.897 78.9698 466.074C80.5351 466.256 81.9172 465.169 82.0942 463.647L82.0956 463.634L82.0957 463.634L92.667 379.542C92.6672 379.54 92.6674 379.539 92.6677 379.537C92.8449 377.986 91.7697 376.587 90.2247 376.363Z" fill="#2868F2"/>
<path fill-rule="evenodd" clip-rule="evenodd" d="M187.305 354.515C196.603 353.134 208.982 344.314 211.319 338.417C211.585 333.422 207.122 329.278 205.21 329.969C203.828 330.447 202.606 333.051 202.075 334.485C201.969 334.751 201.544 334.751 201.437 334.485C200.853 332.891 199.843 331.032 198.728 332.041C197.825 332.838 197.559 334.857 197.293 336.717C197.081 338.31 196.868 339.851 196.284 340.329C195.168 341.339 187.624 345.483 179.176 343.039C179.123 342.986 187.57 355.153 187.305 354.515Z" fill="url(#paint0_linear_1_920)"/>
<path fill-rule="evenodd" clip-rule="evenodd" d="M187.305 354.515C196.603 353.134 208.982 344.314 211.319 338.417C211.585 333.422 207.122 329.278 205.21 329.969C203.828 330.447 202.606 333.051 202.075 334.485C201.969 334.751 201.544 334.751 201.437 334.485C200.853 332.891 199.843 331.032 198.728 332.041C197.825 332.838 197.559 334.857 197.293 336.717C197.081 338.31 196.868 339.851 196.284 340.329C195.168 341.339 187.624 345.483 179.176 343.039C179.123 342.986 187.57 355.153 187.305 354.515Z" fill="url(#paint1_linear_1_920)" fill-opacity="0.27"/>
<path fill-rule="evenodd" clip-rule="evenodd" d="M187.305 354.515C196.603 353.134 208.982 344.314 211.319 338.417C211.585 333.422 207.122 329.278 205.21 329.969C203.828 330.447 202.606 333.051 202.075 334.485C201.969 334.751 201.544 334.751 201.437 334.485C200.853 332.891 199.843 331.032 198.728 332.041C197.825 332.838 197.559 334.857 197.293 336.717C197.081 338.31 196.868 339.851 196.284 340.329C195.168 341.339 187.624 345.483 179.176 343.039C179.123 342.986 187.57 355.153 187.305 354.515Z" stroke="#002AA0" stroke-width="3" stroke-miterlimit="10" stroke-linecap="round" stroke-linejoin="round"/>
<path d="M137.309 326.994L141.666 328.322" stroke="#002AA0" stroke-width="3" stroke-miterlimit="10" stroke-linecap="round" stroke-linejoin="round"/>
<path d="M189.801 326.994L185.445 328.322" stroke="#002AA0" stroke-width="3.7452" stroke-miterlimit="10" stroke-linecap="round" stroke-linejoin="round"/>
<path d="M138.266 320.459L184.701 318.812L186.933 318.599C188.102 318.546 188.42 318.015 188.367 317.218L185.392 236.461C185.339 235.292 183.373 235.239 181.62 235.398C138 239.117 129.234 285.659 128.703 314.508C128.649 317.962 133.006 320.618 138.266 320.459Z" fill="#F9F9F9"/>
<path fill-rule="evenodd" clip-rule="evenodd" d="M169.507 244.43C169.826 244.696 169.72 245.121 169.295 245.387C158.669 250.753 151.284 260.21 146.449 270.889C141.614 281.568 139.276 293.416 138.533 303.351C138.479 303.723 138.054 303.989 137.47 303.989C136.939 303.989 136.461 303.67 136.514 303.298C137.258 293.256 139.595 281.302 144.483 270.517C149.371 259.732 156.862 249.903 168.073 244.271C168.551 244.111 169.188 244.165 169.507 244.43Z" fill="#8A8A8A"/>
<path d="M175.085 306.273C171.526 312.967 153.249 315.093 141.826 319.502L141.348 319.874L188.633 317.537L185.446 235.876C180.823 265.895 179.867 297.188 175.085 306.273Z" fill="#E4E6E5"/>
<path d="M130.668 319.396C133.271 262.919 156.86 242.358 168.283 238.48C165.202 238.586 161.908 241.508 158.879 242.836L149.688 250.009C143.259 257.234 133.962 277.317 131.252 287.572L128.755 317.112L130.668 319.396Z" fill="white"/>
<path fill-rule="evenodd" clip-rule="evenodd" d="M188.155 379.592C188.155 388.943 178.326 386.605 164.14 386.605C148.307 386.605 137.894 388.093 137.894 380.549C137.894 374.811 138.213 368.329 138.638 357.012C139.329 338.257 140.179 328.269 142.888 319.821L171.419 318.015L182.364 317.324C182.842 319.928 186.933 343.677 187.252 353.984C187.57 365.141 188.155 372.845 188.155 379.592Z" fill="url(#paint2_linear_1_920)"/>
<path fill-rule="evenodd" clip-rule="evenodd" d="M188.26 379.592C188.26 388.943 177.528 386.765 163.342 386.765C147.51 386.765 138 388.093 138 380.549C138 374.811 138.318 368.329 138.743 357.012C139.434 338.257 140.284 328.269 142.994 319.821L171.524 318.015L182.469 317.324C182.947 319.928 187.038 343.677 187.357 353.984C187.729 365.141 188.26 372.845 188.26 379.592Z" stroke="#002AA0" stroke-width="3" stroke-miterlimit="10" stroke-linecap="round" stroke-linejoin="round"/>
<path fill-rule="evenodd" clip-rule="evenodd" d="M182.629 376.033C194.052 379.964 191.236 393.353 188.952 399.516C190.811 399.25 192.724 399.888 194.105 401.163C194.849 401.801 195.38 402.651 195.752 403.554C196.284 404.829 195.38 406.264 193.999 406.476C191.343 406.795 188.208 407.007 185.498 406.795C183.586 406.635 181.726 406.21 181.089 404.404C179.176 398.772 176.254 386.977 176.254 386.977C176.254 386.977 175.616 386.924 172.907 386.765C170.144 386.606 169.4 386.765 168.603 385.649C166.797 383.258 166.743 381.027 169.081 378.795C172.8 375.236 178.166 374.492 182.629 376.033Z" fill="url(#paint3_linear_1_920)"/>
<path d="M173.385 375.767C178.008 374.811 181.089 375.289 184.224 376.723C195.222 381.717 191.237 393.353 188.899 399.569C190.759 399.303 192.671 399.941 194.053 401.216C194.797 401.854 195.328 402.704 195.7 403.607C196.231 404.882 195.328 406.317 193.947 406.529C191.29 406.848 188.155 407.06 185.446 406.848C183.533 406.688 181.674 406.263 181.036 404.457C179.123 398.825 175.989 387.137 175.989 387.137C175.989 387.137 171.313 387.084 167.754 386.977" stroke="#002AA0" stroke-width="3" stroke-miterlimit="10" stroke-linecap="round" stroke-linejoin="round"/>
<path fill-rule="evenodd" clip-rule="evenodd" d="M163.874 380.389C170.675 388.89 160.74 397.709 156.011 401.322C157.552 402.013 158.721 403.448 159.146 405.041C159.358 405.891 159.411 406.795 159.252 407.645C159.039 408.867 157.658 409.557 156.542 409.026C154.364 408.017 151.867 406.688 149.901 405.201C148.52 404.138 146.341 402.969 146.713 401.269C147.935 396.062 151.867 390.962 151.867 390.962C151.867 390.962 145.598 389.74 143.047 388.252C140.55 386.765 138.266 383.683 138.213 380.761C138.213 375.289 147.563 376.139 150.804 376.033C155.533 375.767 161.218 377.042 163.874 380.389Z" fill="url(#paint4_linear_1_920)"/>
<path d="M150.91 375.979C155.479 375.076 161.27 377.042 163.874 380.389C170.674 388.89 161.217 397.391 156.489 401.004C158.03 401.694 158.72 403.448 159.198 405.095C159.411 405.945 159.464 406.848 159.305 407.698C159.092 408.92 157.711 409.611 156.595 409.079C154.417 408.07 151.92 406.742 149.954 405.254C148.572 404.191 146.819 403.129 147.244 401.429C148.466 396.222 151.973 391.015 151.973 391.015C151.973 391.015 145.385 389.581 142.728 388.306C138.85 386.499 137.734 382.196 137.468 379.061" stroke="#002AA0" stroke-width="3" stroke-miterlimit="10" stroke-linecap="round" stroke-linejoin="round"/>
<path fill-rule="evenodd" clip-rule="evenodd" d="M169.507 244.43C169.826 244.696 169.72 245.121 169.295 245.387C158.669 250.753 151.284 260.21 146.449 270.889C141.614 281.568 139.276 293.416 138.533 303.351C138.479 303.723 138.054 303.989 137.47 303.989C136.939 303.989 136.461 303.67 136.514 303.298C137.258 293.256 139.595 281.302 144.483 270.517C149.371 259.732 156.862 249.903 168.073 244.271C168.551 244.111 169.188 244.165 169.507 244.43Z" fill="#8A8A8A"/>
<path d="M175.085 306.273C171.526 312.968 153.249 315.093 141.826 319.503L141.348 319.874L188.421 317.856L185.392 235.929C180.823 265.895 179.867 297.188 175.085 306.273Z" fill="#E4E6E5"/>
<path d="M130.668 319.396C133.271 262.919 156.86 242.358 168.283 238.48C165.202 238.586 161.908 241.508 158.879 242.836L149.688 250.009C143.259 257.234 133.962 277.317 131.252 287.572L128.755 317.112L130.668 319.396Z" fill="white"/>
<path d="M149.157 321.362C143.791 321.575 139.593 326.25 139.806 331.882C140.018 337.513 144.534 341.923 149.901 341.711C155.267 341.498 159.464 336.823 159.251 331.191C159.039 325.559 154.523 321.15 149.157 321.362Z" fill="white"/>
<path d="M188.315 315.836C188.368 317.112 187.359 318.174 186.137 318.227L136.726 319.981C136.726 319.981 128.969 320.193 128.757 313.977C128.597 309.567 129.235 283.215 139.914 265.204C150.168 247.777 164.407 234.707 183.162 235.504C184.277 235.557 185.234 236.461 185.287 237.629L188.315 315.836Z" stroke="#8A8A8A" stroke-width="3" stroke-miterlimit="10" stroke-linecap="round" stroke-linejoin="round"/>
<path fill-rule="evenodd" clip-rule="evenodd" d="M149.21 321.84C144.163 322 140.125 326.462 140.338 331.829C140.55 337.195 144.854 341.392 149.901 341.179C154.948 341.02 158.986 336.557 158.774 331.191C158.561 325.825 154.258 321.628 149.21 321.84ZM139.328 331.882C139.116 326.037 143.472 321.043 149.157 320.831C154.789 320.618 159.517 325.24 159.73 331.138C159.942 336.982 155.586 341.976 149.901 342.189C144.269 342.401 139.541 337.726 139.328 331.882Z" fill="#002AA0"/>
<path d="M176.944 320.353C171.577 320.565 167.38 325.453 167.593 331.35C167.805 337.248 172.321 341.817 177.687 341.658C183.053 341.445 187.251 336.557 187.038 330.66C186.826 324.762 182.31 320.14 176.944 320.353Z" fill="white"/>
<path fill-rule="evenodd" clip-rule="evenodd" d="M176.944 320.831C171.897 320.99 167.859 325.666 168.071 331.297C168.284 336.929 172.587 341.286 177.635 341.126C182.682 340.967 186.72 336.291 186.507 330.66C186.348 325.028 181.991 320.671 176.944 320.831ZM167.115 331.35C166.902 325.241 171.259 320.087 176.944 319.874C182.629 319.662 187.304 324.55 187.517 330.66C187.729 336.77 183.373 341.923 177.688 342.136C172.003 342.295 167.327 337.46 167.115 331.35Z" fill="#002AA0"/>
<path fill-rule="evenodd" clip-rule="evenodd" d="M162.387 332.891L165.31 332.785L165.256 330.819L162.334 330.925L162.387 332.891Z" fill="#002AA0"/>
<path d="M155.32 313.871C155.266 314.668 154.682 315.624 152.61 315.996C151.654 316.102 149.528 316.527 148.306 317.59C147.828 317.856 146.606 318.227 145.544 317.43C144.587 316.687 144.906 315.518 145.862 314.774C147.828 313.286 151.229 311.108 154.257 312.489C154.841 312.702 155.32 313.233 155.32 313.871Z" fill="#002AA0"/>
<path d="M171.579 311.905C171.472 312.755 171.95 313.871 174.235 314.349C175.191 314.455 177.317 314.986 178.485 316.049C178.964 316.315 180.398 318.121 181.514 317.324C181.726 317.165 181.886 317.005 181.992 316.793C182.842 315.571 181.886 313.871 180.77 312.914C178.751 311.108 175.563 308.77 172.429 310.736C172.004 311.002 171.632 311.374 171.579 311.905Z" fill="#002AA0"/>
<path fill-rule="evenodd" clip-rule="evenodd" d="M151.071 328.96C151.124 329.703 151.336 330.394 151.708 330.979C151.602 330.979 151.496 330.979 151.389 330.979C151.23 330.979 151.124 330.979 150.964 331.032C150.486 331.138 150.114 331.404 149.849 331.775C149.583 332.147 149.477 332.572 149.53 333.051C149.583 333.529 149.849 333.954 150.167 334.219C150.539 334.538 150.964 334.698 151.442 334.751C151.921 334.751 152.346 334.591 152.718 334.326C153.089 334.06 153.302 333.635 153.355 333.157C153.355 333.051 153.355 332.944 153.355 332.785C153.355 332.626 153.355 332.519 153.355 332.36C153.886 332.572 154.471 332.679 155.055 332.679C155.905 332.626 156.649 332.36 157.287 331.882C157.446 332.519 157.446 333.104 157.393 333.741C157.234 335.123 156.543 336.398 155.48 337.301C154.418 338.204 152.983 338.682 151.549 338.629C150.114 338.576 148.68 337.992 147.564 337.035C146.448 336.079 145.758 334.751 145.545 333.316C145.333 331.935 145.704 330.5 146.501 329.385C147.298 328.269 148.52 327.472 149.955 327.153C150.433 327.047 150.964 326.994 151.442 327.047C151.23 327.631 151.071 328.269 151.071 328.96Z" fill="#00105F"/>
<path fill-rule="evenodd" clip-rule="evenodd" d="M178.909 328.003C178.962 328.747 179.175 329.438 179.547 330.022C179.441 330.022 179.334 330.022 179.228 330.022C179.069 330.022 178.962 330.022 178.803 330.075C178.325 330.182 177.953 330.447 177.687 330.819C177.422 331.191 177.315 331.616 177.369 332.094C177.422 332.572 177.687 332.997 178.006 333.263C178.378 333.582 178.803 333.741 179.281 333.794C179.759 333.794 180.184 333.635 180.556 333.369C180.928 333.104 181.141 332.679 181.194 332.2C181.194 332.094 181.194 331.988 181.194 331.829C181.194 331.669 181.194 331.563 181.194 331.404C181.725 331.616 182.31 331.722 182.894 331.722C183.744 331.669 184.488 331.404 185.125 330.925C185.285 331.563 185.285 332.147 185.232 332.785C185.072 334.166 184.382 335.441 183.319 336.345C182.256 337.248 180.822 337.726 179.387 337.673C177.953 337.62 176.518 337.035 175.403 336.079C174.287 335.123 173.596 333.794 173.384 332.36C173.171 330.978 173.543 329.544 174.34 328.428C175.137 327.313 176.359 326.516 177.794 326.197C178.272 326.091 178.803 326.037 179.281 326.091C179.069 326.728 178.909 327.366 178.909 328.003Z" fill="#00105F"/>
<path d="M148.998 345.058C156.48 345.058 162.546 338.992 162.546 331.51C162.546 324.027 156.48 317.962 148.998 317.962C141.515 317.962 135.45 324.027 135.45 331.51C135.45 338.992 141.515 345.058 148.998 345.058Z" fill="url(#paint5_linear_1_920)" fill-opacity="0.6"/>
<path d="M178.061 345.058C185.543 345.058 191.609 338.992 191.609 331.51C191.609 324.027 185.543 317.962 178.061 317.962C170.579 317.962 164.513 324.027 164.513 331.51C164.513 338.992 170.579 345.058 178.061 345.058Z" fill="url(#paint6_linear_1_920)" fill-opacity="0.6"/>
<path fill-rule="evenodd" clip-rule="evenodd" d="M148.626 319.556C142.038 319.768 136.831 325.347 137.097 331.935C137.309 338.523 142.888 343.73 149.476 343.464C156.064 343.252 161.271 337.673 161.005 331.085C160.793 324.497 155.267 319.343 148.626 319.556ZM135.131 332.041C134.865 324.337 140.869 317.909 148.573 317.643C156.277 317.377 162.705 323.381 162.971 331.085C163.237 338.789 157.233 345.217 149.529 345.483C141.879 345.749 135.397 339.745 135.131 332.041Z" fill="#002AA0"/>
<path fill-rule="evenodd" clip-rule="evenodd" d="M177.423 319.449C170.57 319.715 165.204 325.453 165.416 332.307C165.629 339.16 171.42 344.527 178.274 344.314C185.127 344.101 190.493 338.31 190.281 331.457C190.068 324.603 184.33 319.237 177.423 319.449ZM163.503 332.413C163.238 324.443 169.454 317.802 177.37 317.537C185.34 317.271 191.981 323.487 192.247 331.403C192.512 339.373 186.296 346.014 178.38 346.28C170.463 346.545 163.769 340.382 163.503 332.413Z" fill="#002AA0"/>
<path d="M151.123 351.008C151.123 351.008 155.426 357.384 163.98 357.065C172.534 356.746 175.828 351.008 175.828 351.008" stroke="#002AA0" stroke-width="3" stroke-miterlimit="10" stroke-linecap="round" stroke-linejoin="round"/>
<path fill-rule="evenodd" clip-rule="evenodd" d="M153.355 364.822C149.795 364.822 146.926 367.691 146.926 371.251V371.835H159.73V371.251C159.73 367.691 156.861 364.822 153.355 364.822Z" fill="white" stroke="#2868F2" stroke-width="3" stroke-miterlimit="10" stroke-linecap="round" stroke-linejoin="round"/>
<path fill-rule="evenodd" clip-rule="evenodd" d="M130.402 350.052C126.417 356.109 125.408 363.6 128.49 367.319C130.987 370.294 136.937 371.357 142.569 369.338C151.123 366.31 159.252 368.01 157.498 362.112C157.286 361.422 156.436 360.359 154.629 359.509C152.451 358.446 149.423 358.287 147.722 358.818C145.757 359.509 144.641 360.094 143.791 361.05C140.975 364.238 138.584 365.194 135.821 361.687C133.431 358.712 139.328 352.921 139.328 352.921L139.7 341.604C139.7 341.657 132.793 346.492 130.402 350.052Z" fill="url(#paint7_linear_1_920)"/>
<path fill-rule="evenodd" clip-rule="evenodd" d="M130.403 350.052C126.259 356.268 125.09 363.653 128.49 367.319C131.04 370.082 137.203 371.251 142.57 369.338C151.123 366.31 159.252 368.01 157.499 362.112C157.074 360.625 153.939 357.915 147.723 358.872C142.144 359.722 142.091 367.85 135.822 361.741C133.059 359.084 138.85 353.08 138.85 353.08L139.435 341.604C139.488 341.657 132.794 346.492 130.403 350.052Z" stroke="#002AA0" stroke-width="3" stroke-miterlimit="10" stroke-linecap="round" stroke-linejoin="round"/>
<path d="M436.759 45C410.513 45 385.861 57.8574 370.825 79.3749C363.919 76.7184 356.534 75.3371 349.149 75.2839C315.571 75.2839 288.368 102.486 288.368 136.064C288.368 138.03 288.528 139.996 288.74 141.962C252.134 144.459 223.709 174.902 223.656 211.562C223.656 249.815 254.471 280.949 292.725 281.321L292.672 281.374H293.415H511.141C555.611 281.374 591.686 245.299 591.686 200.829C591.633 158.698 559.17 123.685 517.145 120.55C514.488 78.0998 479.263 45 436.759 45Z" fill="white" stroke="#2868F2" stroke-width="3" stroke-miterlimit="10" stroke-linecap="round" stroke-linejoin="round"/>
<path d="M445 177.805H475.762" stroke="#2868F2" stroke-width="3" stroke-miterlimit="10" stroke-linecap="round" stroke-linejoin="round" stroke-dasharray="10 10"/>
<path d="M475.762 131.795H456.689V223.816H475.762" stroke="#2868F2" stroke-width="3" stroke-miterlimit="10" stroke-linecap="round" stroke-linejoin="round" stroke-dasharray="10 10"/>
<path fill-rule="evenodd" clip-rule="evenodd" d="M434.357 253.675H255.948C250.794 253.675 246.65 249.477 246.65 244.377V111.234C246.65 106.08 250.847 101.936 255.948 101.936H434.357C439.511 101.936 443.655 106.133 443.655 111.234V244.377C443.708 249.531 439.511 253.675 434.357 253.675Z" fill="#DFE7F6"/>
<path fill-rule="evenodd" clip-rule="evenodd" d="M255.948 102.999C251.43 102.999 247.713 106.671 247.713 111.234V244.377C247.713 248.894 251.385 252.612 255.948 252.612H434.358C438.934 252.612 442.64 248.936 442.593 244.388L442.593 244.377V111.234C442.593 106.716 438.92 102.999 434.358 102.999H255.948ZM245.588 111.234C245.588 105.489 250.265 100.873 255.948 100.873H434.358C440.102 100.873 444.718 105.55 444.718 111.234V244.372C444.774 250.128 440.086 254.737 434.358 254.737H255.948C250.204 254.737 245.588 250.06 245.588 244.377V111.234Z" fill="#2868F2"/>
<path d="M412.203 211.596C412.044 211.224 411.884 210.852 411.672 210.533C411.459 210.161 411.247 209.843 410.981 209.524C411.459 208.886 412.044 208.143 412.788 207.346C412.256 206.708 411.672 206.177 411.034 205.645C410.237 206.389 409.494 207.027 408.909 207.505C408.272 207.027 407.528 206.655 406.784 206.336C406.89 205.592 407.05 204.636 407.262 203.52C406.518 203.255 405.721 203.042 404.924 202.936C404.606 203.998 404.287 204.902 404.021 205.645C403.224 205.539 402.427 205.592 401.577 205.699C401.258 205.008 400.94 204.105 400.568 203.042C400.196 203.095 399.771 203.201 399.399 203.308C399.027 203.414 398.602 203.573 398.23 203.68C398.496 204.742 398.655 205.699 398.761 206.496C398.389 206.655 398.018 206.814 397.699 207.027C397.327 207.239 397.008 207.452 396.689 207.718C396.052 207.239 395.308 206.655 394.511 205.911C393.873 206.442 393.342 207.027 392.811 207.664C393.555 208.461 394.192 209.205 394.67 209.79C394.192 210.427 393.82 211.171 393.502 211.915C392.758 211.808 391.801 211.649 390.686 211.437C390.42 212.18 390.207 212.977 390.101 213.774C391.164 214.093 392.067 214.412 392.811 214.678C392.705 215.474 392.758 216.271 392.864 217.121C392.173 217.44 391.27 217.759 390.207 218.131C390.261 218.503 390.367 218.928 390.473 219.3C390.579 219.672 390.739 220.097 390.845 220.469C391.908 220.203 392.864 220.044 393.661 219.937C393.82 220.309 393.98 220.681 394.192 221C394.405 221.372 394.617 221.691 394.883 222.009C394.405 222.647 393.82 223.391 393.076 224.188C393.608 224.825 394.192 225.357 394.83 225.888C395.627 225.144 396.371 224.506 396.955 224.028C397.592 224.506 398.336 224.878 399.08 225.197C398.974 225.941 398.814 226.897 398.602 228.013C399.346 228.279 400.143 228.491 400.94 228.597C401.258 227.535 401.577 226.632 401.843 225.888C402.64 225.994 403.437 225.941 404.287 225.835C404.606 226.525 404.924 227.429 405.296 228.491C405.668 228.438 406.093 228.332 406.465 228.226C406.837 228.119 407.262 227.96 407.634 227.854C407.368 226.791 407.209 225.835 407.103 225.038C407.475 224.878 407.847 224.719 408.165 224.507C408.537 224.294 408.856 224.081 409.175 223.816C409.812 224.294 410.556 224.878 411.353 225.622C411.991 225.091 412.522 224.506 413.053 223.869C412.309 223.072 411.672 222.328 411.194 221.744C411.672 221.106 412.044 220.362 412.363 219.619C413.106 219.725 414.063 219.884 415.178 220.097C415.444 219.353 415.657 218.556 415.763 217.759C414.7 217.44 413.797 217.121 413.053 216.856C413.159 216.059 413.106 215.262 413 214.412C413.691 214.093 414.594 213.774 415.657 213.402C415.603 213.03 415.497 212.605 415.391 212.234C415.285 211.862 415.125 211.437 415.019 211.065C413.903 211.33 412.947 211.49 412.203 211.596ZM405.774 220.628C403.065 222.222 399.611 221.372 397.964 218.662C396.37 215.953 397.221 212.499 399.93 210.852C402.64 209.258 406.093 210.108 407.74 212.818C409.387 215.581 408.484 219.034 405.774 220.628Z" fill="#3D92F9"/>
<path fill-rule="evenodd" clip-rule="evenodd" d="M403.906 202.631C404.056 202.131 404.547 201.814 405.064 201.883C405.95 202.001 406.821 202.234 407.619 202.52C408.112 202.696 408.403 203.205 408.305 203.719C408.164 204.459 408.048 205.125 407.955 205.703C408.251 205.847 408.547 206.005 408.838 206.18C409.283 205.801 409.784 205.358 410.309 204.869C410.7 204.503 411.303 204.486 411.714 204.829C412.372 205.378 413.012 205.956 413.603 206.665C413.946 207.077 413.929 207.679 413.564 208.071C413.083 208.586 412.67 209.08 412.309 209.538C412.402 209.68 412.49 209.826 412.577 209.976C412.672 210.122 412.757 210.273 412.834 210.423C413.402 210.328 414.053 210.202 414.772 210.031C415.325 209.899 415.884 210.226 416.04 210.773C416.086 210.932 416.144 211.109 416.213 211.313L416.216 211.324C416.28 211.516 416.353 211.733 416.412 211.942C416.523 212.33 416.645 212.809 416.708 213.252C416.78 213.755 416.486 214.238 416.007 214.405C415.282 214.659 414.66 214.879 414.138 215.084C414.165 215.427 414.179 215.774 414.171 216.124C414.736 216.32 415.366 216.531 416.068 216.741C416.568 216.891 416.885 217.382 416.816 217.9C416.697 218.785 416.464 219.656 416.179 220.454C416.002 220.947 415.493 221.239 414.979 221.141C414.239 221 413.573 220.883 412.995 220.79C412.851 221.086 412.693 221.383 412.518 221.673C412.897 222.118 413.34 222.619 413.83 223.144C414.195 223.535 414.212 224.138 413.869 224.549C413.32 225.208 412.742 225.848 412.033 226.439C411.621 226.782 411.019 226.765 410.627 226.399C410.112 225.918 409.618 225.506 409.16 225.144C409.018 225.237 408.873 225.325 408.722 225.412C408.575 225.508 408.422 225.594 408.27 225.672C408.365 226.257 408.491 226.904 408.664 227.596C408.803 228.152 408.476 228.718 407.925 228.876C407.766 228.921 407.589 228.98 407.385 229.048L407.374 229.051C407.183 229.115 406.965 229.188 406.756 229.247C406.368 229.358 405.889 229.48 405.446 229.543C404.943 229.615 404.46 229.321 404.293 228.842C404.039 228.117 403.82 227.496 403.614 226.973C403.271 227 402.925 227.014 402.574 227.007C402.378 227.571 402.167 228.202 401.957 228.903C401.807 229.403 401.316 229.72 400.799 229.651C399.913 229.533 399.042 229.299 398.244 229.014C397.751 228.838 397.459 228.329 397.557 227.814C397.698 227.074 397.815 226.408 397.908 225.831C397.612 225.686 397.315 225.528 397.025 225.354C396.58 225.733 396.079 226.175 395.554 226.665C395.163 227.03 394.56 227.047 394.149 226.704C393.491 226.156 392.85 225.577 392.26 224.868C391.917 224.457 391.934 223.854 392.299 223.463C392.78 222.947 393.193 222.454 393.554 221.995C393.461 221.853 393.373 221.708 393.286 221.557C393.19 221.41 393.104 221.257 393.026 221.105C392.441 221.2 391.794 221.327 391.102 221.5C390.546 221.639 389.98 221.312 389.823 220.761C389.777 220.601 389.718 220.425 389.65 220.22L389.647 220.209C389.583 220.018 389.51 219.8 389.451 219.592C389.34 219.203 389.218 218.724 389.155 218.281C389.083 217.779 389.377 217.296 389.856 217.128C390.581 216.874 391.203 216.655 391.725 216.449C391.698 216.106 391.684 215.76 391.692 215.409C391.127 215.213 390.496 215.003 389.795 214.792C389.295 214.642 388.978 214.151 389.047 213.634C389.165 212.748 389.399 211.878 389.684 211.079C389.86 210.586 390.369 210.295 390.884 210.393C391.624 210.534 392.29 210.65 392.867 210.743C393.012 210.448 393.17 210.151 393.345 209.861C392.966 209.415 392.523 208.914 392.033 208.39C391.668 207.998 391.651 207.396 391.994 206.984C392.542 206.326 393.121 205.686 393.83 205.095C394.242 204.752 394.844 204.769 395.235 205.134C395.751 205.615 396.244 206.028 396.703 206.389C396.845 206.296 396.99 206.208 397.141 206.121C397.288 206.025 397.441 205.939 397.593 205.861C397.498 205.276 397.372 204.63 397.198 203.937C397.059 203.381 397.386 202.815 397.937 202.658C398.097 202.612 398.274 202.554 398.478 202.486L398.489 202.482C398.68 202.418 398.898 202.346 399.106 202.286C399.495 202.175 399.974 202.053 400.417 201.99C400.919 201.918 401.402 202.212 401.57 202.691C401.824 203.416 402.043 204.038 402.249 204.561C402.592 204.534 402.938 204.52 403.289 204.527C403.485 203.963 403.696 203.332 403.906 202.631ZM405.658 204.151C405.43 204.855 405.21 205.473 405.021 206.003C404.853 206.475 404.377 206.765 403.88 206.699C403.218 206.611 402.528 206.651 401.708 206.753C401.249 206.811 400.806 206.564 400.612 206.144C400.367 205.614 400.126 204.977 399.876 204.278C399.814 204.295 399.752 204.312 399.69 204.33C399.624 204.349 399.555 204.37 399.482 204.393C399.633 205.118 399.737 205.779 399.814 206.355C399.877 206.828 399.618 207.285 399.179 207.472C398.788 207.64 398.511 207.762 398.288 207.911C398.267 207.925 398.247 207.937 398.225 207.95C397.895 208.138 397.63 208.317 397.369 208.534C396.991 208.849 396.445 208.863 396.051 208.568C395.594 208.225 395.076 207.823 394.521 207.346C394.424 207.444 394.329 207.544 394.234 207.647C394.721 208.192 395.147 208.695 395.492 209.117C395.802 209.495 395.813 210.036 395.52 210.427C395.116 210.966 394.783 211.621 394.478 212.333C394.288 212.775 393.826 213.035 393.351 212.967C392.806 212.889 392.154 212.784 391.415 212.652C391.379 212.781 391.346 212.911 391.316 213.041C392.019 213.269 392.638 213.488 393.168 213.677C393.64 213.845 393.93 214.321 393.864 214.818C393.775 215.48 393.815 216.17 393.918 216.99C393.975 217.449 393.729 217.892 393.309 218.086C392.778 218.331 392.142 218.572 391.443 218.822C391.459 218.884 391.477 218.946 391.494 219.008C391.513 219.074 391.534 219.143 391.557 219.216C392.282 219.065 392.943 218.961 393.52 218.884C393.992 218.821 394.449 219.081 394.637 219.519C394.805 219.91 394.927 220.188 395.076 220.411C395.089 220.431 395.102 220.452 395.114 220.473C395.303 220.803 395.481 221.068 395.699 221.329C396.014 221.708 396.028 222.253 395.732 222.647C395.39 223.104 394.988 223.622 394.511 224.178C394.609 224.274 394.709 224.369 394.812 224.464C395.357 223.977 395.859 223.551 396.281 223.206C396.66 222.896 397.201 222.885 397.592 223.178C398.131 223.582 398.786 223.915 399.498 224.22C399.94 224.41 400.199 224.872 400.132 225.348C400.054 225.893 399.949 226.544 399.817 227.284C399.946 227.319 400.075 227.352 400.205 227.382C400.433 226.679 400.652 226.06 400.842 225.531C401.01 225.058 401.486 224.768 401.983 224.835C402.645 224.923 403.335 224.883 404.154 224.78C404.614 224.723 405.057 224.969 405.251 225.389C405.496 225.92 405.736 226.556 405.987 227.256C406.049 227.239 406.111 227.221 406.173 227.204C406.239 227.185 406.308 227.164 406.38 227.141C406.23 226.416 406.126 225.755 406.049 225.178C405.986 224.706 406.245 224.249 406.683 224.061C407.074 223.894 407.352 223.771 407.575 223.622C407.596 223.609 407.616 223.596 407.637 223.584C407.968 223.395 408.233 223.217 408.494 223C408.872 222.684 409.418 222.67 409.812 222.966C410.269 223.309 410.787 223.71 411.342 224.187C411.439 224.089 411.534 223.989 411.629 223.886C411.142 223.341 410.716 222.839 410.371 222.417C410.061 222.038 410.05 221.497 410.343 221.106C410.747 220.567 411.08 219.913 411.385 219.2C411.574 218.758 412.037 218.499 412.512 218.567C413.057 218.644 413.709 218.75 414.448 218.881C414.484 218.752 414.517 218.623 414.547 218.493C413.843 218.265 413.225 218.046 412.695 217.857C412.223 217.688 411.933 217.212 411.999 216.715C412.088 216.054 412.047 215.363 411.945 214.544C411.888 214.085 412.134 213.641 412.554 213.447C413.085 213.202 413.721 212.962 414.42 212.711C414.403 212.649 414.386 212.587 414.369 212.526C414.349 212.457 414.327 212.386 414.303 212.311C413.554 212.465 412.897 212.57 412.353 212.648C411.877 212.716 411.415 212.456 411.226 212.015C411.058 211.624 410.936 211.346 410.787 211.123C410.774 211.103 410.761 211.082 410.749 211.061C410.56 210.73 410.382 210.465 410.164 210.204C409.849 209.826 409.835 209.28 410.13 208.886C410.473 208.429 410.875 207.912 411.352 207.356C411.254 207.259 411.154 207.164 411.051 207.069C410.506 207.556 410.004 207.982 409.581 208.328C409.203 208.637 408.662 208.649 408.271 208.355C407.732 207.951 407.077 207.618 406.365 207.313C405.923 207.124 405.663 206.662 405.731 206.186C405.809 205.641 405.914 204.989 406.046 204.25C405.917 204.215 405.787 204.181 405.658 204.151ZM400.475 211.764C398.272 213.108 397.582 215.909 398.876 218.117C400.221 220.322 403.026 221.012 405.235 219.712C407.433 218.419 408.173 215.624 406.829 213.366C405.486 211.161 402.684 210.47 400.475 211.764ZM399.391 209.936C402.599 208.049 406.697 209.058 408.648 212.266L408.652 212.274L408.652 212.274C410.6 215.541 409.533 219.65 406.313 221.544C403.105 223.431 399.006 222.423 397.056 219.214L397.048 219.201C395.161 215.993 396.169 211.894 399.378 209.944L399.391 209.936Z" fill="#2868F2"/>
<path d="M431.17 215.209C431.063 214.943 430.957 214.731 430.798 214.518C430.638 214.306 430.532 214.093 430.32 213.881C430.638 213.456 431.01 212.977 431.489 212.446C431.117 212.021 430.745 211.649 430.32 211.33C429.788 211.809 429.31 212.234 428.885 212.552C428.46 212.234 427.982 211.968 427.504 211.755C427.557 211.277 427.663 210.64 427.823 209.896C427.344 209.736 426.813 209.577 426.282 209.524C426.069 210.215 425.857 210.852 425.697 211.277C425.166 211.224 424.635 211.224 424.104 211.277C423.891 210.799 423.678 210.215 423.413 209.524C423.147 209.577 422.882 209.63 422.616 209.683C422.35 209.736 422.085 209.843 421.872 209.949C422.031 210.64 422.138 211.277 422.244 211.808C421.978 211.915 421.766 212.021 421.553 212.18C421.341 212.34 421.128 212.446 420.916 212.659C420.491 212.34 420.013 211.968 419.481 211.49C419.056 211.862 418.684 212.234 418.366 212.659C418.844 213.19 419.269 213.668 419.587 214.04C419.269 214.465 419.003 214.943 418.791 215.421C418.312 215.368 417.675 215.262 416.931 215.103C416.772 215.581 416.612 216.112 416.559 216.643C417.25 216.856 417.887 217.068 418.312 217.228C418.259 217.759 418.259 218.29 418.312 218.822C417.834 219.034 417.25 219.247 416.559 219.512C416.612 219.778 416.665 220.044 416.718 220.309C416.772 220.575 416.878 220.841 416.984 221.053C417.675 220.894 418.312 220.787 418.844 220.681C418.95 220.947 419.056 221.159 419.216 221.372C419.375 221.584 419.481 221.797 419.694 222.009C419.375 222.434 419.003 222.913 418.525 223.444C418.897 223.869 419.269 224.241 419.694 224.56C420.225 224.081 420.703 223.656 421.128 223.338C421.553 223.656 422.031 223.922 422.51 224.135C422.456 224.613 422.35 225.25 422.191 225.994C422.669 226.154 423.2 226.313 423.732 226.366C423.944 225.675 424.157 225.038 424.316 224.613C424.847 224.666 425.379 224.666 425.91 224.613C426.122 225.091 426.335 225.675 426.601 226.366C426.866 226.313 427.132 226.26 427.398 226.207C427.663 226.154 427.929 226.047 428.141 225.941C427.982 225.25 427.876 224.613 427.769 224.081C428.035 223.975 428.248 223.869 428.46 223.71C428.673 223.55 428.885 223.444 429.098 223.231C429.523 223.55 430.001 223.922 430.532 224.4C430.957 224.028 431.329 223.656 431.648 223.231C431.17 222.7 430.745 222.222 430.426 221.85C430.745 221.425 431.01 220.947 431.223 220.469C431.701 220.522 432.339 220.628 433.082 220.787C433.242 220.309 433.401 219.778 433.454 219.247C432.764 219.034 432.126 218.822 431.701 218.662C431.754 218.131 431.754 217.6 431.701 217.068C432.179 216.856 432.764 216.643 433.454 216.378C433.401 216.112 433.348 215.846 433.295 215.581C433.242 215.315 433.136 215.049 433.029 214.837C432.285 214.996 431.701 215.103 431.17 215.209ZM426.973 221.159C425.219 222.222 422.882 221.638 421.819 219.884C420.756 218.131 421.341 215.793 423.094 214.731C424.847 213.668 427.185 214.252 428.248 216.006C429.31 217.812 428.726 220.097 426.973 221.159Z" fill="#3D92F9"/>
<path fill-rule="evenodd" clip-rule="evenodd" d="M423.205 208.482C423.712 208.38 424.219 208.659 424.405 209.142C424.474 209.321 424.538 209.489 424.598 209.647C424.67 209.837 424.736 210.012 424.8 210.175C424.853 210.175 424.905 210.175 424.958 210.175C425.055 209.884 425.16 209.556 425.266 209.211C425.415 208.728 425.884 208.416 426.388 208.467C427.044 208.532 427.67 208.725 428.159 208.888C428.673 209.059 428.975 209.589 428.862 210.118C428.781 210.497 428.715 210.842 428.664 211.147C428.716 211.177 428.769 211.207 428.821 211.237C429.06 211.033 429.321 210.8 429.609 210.54C429.986 210.201 430.551 210.176 430.958 210.48C431.462 210.859 431.889 211.289 432.289 211.746C432.643 212.151 432.639 212.757 432.279 213.157C432.048 213.414 431.843 213.658 431.656 213.89C431.686 213.932 431.716 213.973 431.744 214.014C432.064 213.952 432.409 213.883 432.807 213.798C433.281 213.696 433.763 213.928 433.98 214.362C434.113 214.628 434.26 214.985 434.337 215.372L434.497 216.169C434.598 216.677 434.319 217.184 433.836 217.37C433.657 217.438 433.489 217.502 433.331 217.562C433.142 217.634 432.967 217.701 432.803 217.764C432.804 217.817 432.804 217.87 432.804 217.923C433.095 218.02 433.423 218.125 433.767 218.231C434.251 218.38 434.562 218.849 434.512 219.352C434.446 220.009 434.254 220.635 434.091 221.123C433.92 221.637 433.39 221.94 432.86 221.827C432.482 221.745 432.137 221.68 431.831 221.628C431.807 221.672 431.782 221.715 431.757 221.759C431.964 221.992 432.193 222.249 432.438 222.52C432.778 222.898 432.803 223.463 432.498 223.869C432.12 224.374 431.689 224.8 431.232 225.2C430.827 225.554 430.222 225.55 429.822 225.19C429.565 224.959 429.321 224.754 429.088 224.567C429.046 224.599 429.004 224.629 428.962 224.657C429.024 224.987 429.091 225.33 429.177 225.702C429.288 226.18 429.056 226.672 428.617 226.892C428.351 227.024 427.993 227.171 427.606 227.249L426.809 227.408C426.302 227.51 425.795 227.231 425.609 226.748C425.54 226.568 425.476 226.401 425.416 226.243C425.344 226.053 425.278 225.878 425.214 225.715C425.161 225.715 425.109 225.715 425.056 225.715C424.959 226.006 424.854 226.334 424.748 226.679C424.599 227.162 424.13 227.474 423.626 227.423C422.97 227.358 422.344 227.165 421.855 227.002C421.341 226.831 421.039 226.301 421.152 225.771C421.233 225.393 421.299 225.048 421.35 224.743C421.298 224.713 421.245 224.683 421.193 224.653C420.954 224.857 420.693 225.09 420.405 225.35C420.028 225.689 419.463 225.714 419.056 225.41C418.552 225.031 418.125 224.601 417.725 224.144C417.371 223.739 417.375 223.133 417.735 222.733C417.966 222.476 418.171 222.232 418.358 222C418.327 221.957 418.297 221.915 418.268 221.873C417.939 221.935 417.596 222.003 417.223 222.089C416.745 222.199 416.253 221.967 416.034 221.528C415.901 221.262 415.754 220.905 415.677 220.518L415.517 219.721C415.416 219.213 415.695 218.706 416.178 218.52C416.357 218.452 416.525 218.388 416.683 218.328C416.872 218.256 417.047 218.189 417.211 218.126C417.21 218.073 417.21 218.02 417.21 217.967C416.919 217.87 416.591 217.765 416.247 217.659C415.763 217.51 415.452 217.041 415.502 216.538C415.568 215.881 415.76 215.255 415.923 214.766C416.094 214.253 416.624 213.95 417.154 214.063C417.532 214.144 417.877 214.21 418.183 214.262C418.207 214.218 418.232 214.175 418.257 214.131C418.05 213.898 417.821 213.641 417.576 213.369C417.236 212.992 417.211 212.427 417.516 212.021C417.894 211.516 418.325 211.09 418.782 210.69C419.187 210.336 419.792 210.34 420.192 210.7C420.449 210.931 420.693 211.136 420.926 211.323C420.968 211.291 421.01 211.261 421.052 211.233C420.99 210.903 420.923 210.56 420.837 210.188C420.727 209.71 420.958 209.218 421.397 208.998C421.663 208.866 422.021 208.719 422.408 208.641L423.205 208.482ZM426.471 212.006C426.25 212.24 425.928 212.368 425.592 212.335C425.131 212.289 424.671 212.289 424.21 212.335C423.857 212.37 423.517 212.227 423.295 211.967C423.24 212.331 422.997 212.652 422.639 212.795C422.423 212.881 422.303 212.947 422.191 213.031C422.116 213.087 422.045 213.135 421.987 213.175C421.962 213.191 421.941 213.205 421.922 213.218C421.892 213.238 421.867 213.255 421.837 213.275C421.757 213.33 421.709 213.368 421.667 213.41C421.377 213.7 420.955 213.791 420.583 213.668C420.707 214 420.66 214.381 420.438 214.678C420.177 215.026 419.949 215.432 419.762 215.853C419.625 216.16 419.355 216.378 419.041 216.454C419.276 216.675 419.404 216.998 419.37 217.333C419.324 217.794 419.324 218.255 419.37 218.716C419.405 219.069 419.263 219.408 419.002 219.63C419.367 219.685 419.687 219.928 419.831 220.286C419.917 220.502 419.982 220.622 420.066 220.734C420.122 220.809 420.171 220.88 420.21 220.939C420.227 220.964 420.241 220.984 420.253 221.003C420.274 221.034 420.29 221.059 420.311 221.089C420.366 221.169 420.404 221.216 420.445 221.258C420.742 221.555 420.83 221.989 420.695 222.367C421.042 222.212 421.453 222.252 421.766 222.487C422.115 222.749 422.52 222.976 422.942 223.163C423.249 223.3 423.466 223.57 423.543 223.884C423.764 223.649 424.086 223.522 424.422 223.555C424.883 223.601 425.344 223.601 425.804 223.555C426.157 223.52 426.497 223.663 426.719 223.923C426.774 223.559 427.017 223.238 427.375 223.095C427.591 223.009 427.711 222.943 427.823 222.859C427.898 222.803 427.969 222.755 428.027 222.715C428.052 222.699 428.073 222.685 428.092 222.672C428.122 222.652 428.148 222.635 428.177 222.615C428.257 222.56 428.305 222.522 428.347 222.48C428.637 222.19 429.059 222.099 429.431 222.222C429.307 221.89 429.354 221.509 429.576 221.212C429.837 220.864 430.065 220.458 430.252 220.037C430.389 219.73 430.659 219.512 430.973 219.436C430.738 219.215 430.61 218.892 430.644 218.556C430.69 218.096 430.69 217.635 430.644 217.174C430.609 216.821 430.751 216.482 431.012 216.26C430.647 216.205 430.327 215.962 430.183 215.603C430.097 215.388 430.032 215.268 429.948 215.156C429.892 215.081 429.843 215.01 429.804 214.951C429.787 214.926 429.773 214.905 429.761 214.887C429.74 214.856 429.724 214.831 429.703 214.801C429.648 214.721 429.61 214.674 429.569 214.632C429.272 214.335 429.184 213.901 429.319 213.523C428.973 213.678 428.561 213.638 428.248 213.402C427.899 213.141 427.494 212.914 427.073 212.726C426.765 212.59 426.548 212.32 426.471 212.006ZM427.336 216.551C426.573 215.299 424.89 214.885 423.645 215.639C422.389 216.401 421.973 218.087 422.728 219.333C423.489 220.59 425.175 221.006 426.422 220.251C427.673 219.493 428.101 217.858 427.336 216.551ZM422.544 213.822C424.804 212.452 427.793 213.205 429.157 215.455L429.164 215.467C430.519 217.771 429.778 220.702 427.524 222.068C425.264 223.438 422.274 222.685 420.91 220.435C419.541 218.175 420.293 215.186 422.544 213.822Z" fill="#2868F2"/>
<path d="M259.454 117.078C261.391 117.078 262.961 115.508 262.961 113.572C262.961 111.635 261.391 110.065 259.454 110.065C257.517 110.065 255.947 111.635 255.947 113.572C255.947 115.508 257.517 117.078 259.454 117.078Z" fill="white"/>
<path fill-rule="evenodd" clip-rule="evenodd" d="M259.454 111.128C258.105 111.128 257.01 112.222 257.01 113.572C257.01 114.921 258.105 116.016 259.454 116.016C260.804 116.016 261.898 114.921 261.898 113.572C261.898 112.222 260.804 111.128 259.454 111.128ZM254.885 113.572C254.885 111.048 256.931 109.002 259.454 109.002C261.978 109.002 264.024 111.048 264.024 113.572C264.024 116.095 261.978 118.141 259.454 118.141C256.931 118.141 254.885 116.095 254.885 113.572Z" fill="#2868F2"/>
<path d="M269.868 117.078C271.804 117.078 273.374 115.508 273.374 113.572C273.374 111.635 271.804 110.065 269.868 110.065C267.931 110.065 266.361 111.635 266.361 113.572C266.361 115.508 267.931 117.078 269.868 117.078Z" fill="white"/>
<path fill-rule="evenodd" clip-rule="evenodd" d="M269.868 111.128C268.518 111.128 267.424 112.222 267.424 113.572C267.424 114.921 268.518 116.016 269.868 116.016C271.217 116.016 272.312 114.921 272.312 113.572C272.312 112.222 271.217 111.128 269.868 111.128ZM265.299 113.572C265.299 111.048 267.344 109.002 269.868 109.002C272.391 109.002 274.437 111.048 274.437 113.572C274.437 116.095 272.391 118.141 269.868 118.141C267.344 118.141 265.299 116.095 265.299 113.572Z" fill="#2868F2"/>
<path d="M280.28 117.078C282.217 117.078 283.787 115.508 283.787 113.572C283.787 111.635 282.217 110.065 280.28 110.065C278.344 110.065 276.774 111.635 276.774 113.572C276.774 115.508 278.344 117.078 280.28 117.078Z" fill="white"/>
<path fill-rule="evenodd" clip-rule="evenodd" d="M280.281 111.128C278.932 111.128 277.837 112.222 277.837 113.572C277.837 114.921 278.932 116.016 280.281 116.016C281.631 116.016 282.725 114.921 282.725 113.572C282.725 112.222 281.631 111.128 280.281 111.128ZM275.712 113.572C275.712 111.048 277.758 109.002 280.281 109.002C282.805 109.002 284.851 111.048 284.851 113.572C284.851 116.095 282.805 118.141 280.281 118.141C277.758 118.141 275.712 116.095 275.712 113.572Z" fill="#2868F2"/>
<path d="M427.611 120.478H310.725C307.856 120.478 305.518 118.141 305.518 115.272C305.518 112.403 307.856 110.065 310.725 110.065H427.557C430.426 110.065 432.764 112.403 432.764 115.272C432.764 118.141 430.48 120.478 427.611 120.478Z" fill="white"/>
<path fill-rule="evenodd" clip-rule="evenodd" d="M310.725 111.128C308.443 111.128 306.581 112.99 306.581 115.272C306.581 117.554 308.443 119.416 310.725 119.416H427.611C429.879 119.416 431.702 117.568 431.702 115.272C431.702 112.99 429.84 111.128 427.558 111.128H310.725ZM304.456 115.272C304.456 111.816 307.27 109.002 310.725 109.002H427.558C431.014 109.002 433.827 111.816 433.827 115.272C433.827 118.713 431.081 121.541 427.611 121.541H310.725C307.27 121.541 304.456 118.728 304.456 115.272Z" fill="#2868F2"/>
<path d="M346.481 140.774H258.551C257.117 140.774 256.001 139.605 256.001 138.224C256.001 136.789 257.17 135.674 258.551 135.674H346.481C347.916 135.674 349.031 136.842 349.031 138.224C349.031 139.658 347.916 140.774 346.481 140.774Z" fill="white"/>
<path fill-rule="evenodd" clip-rule="evenodd" d="M258.552 136.736C257.743 136.736 257.064 137.391 257.064 138.224C257.064 139.033 257.718 139.711 258.552 139.711H346.481C347.329 139.711 347.969 139.071 347.969 138.224C347.969 137.415 347.315 136.736 346.481 136.736H258.552ZM254.939 138.224C254.939 136.188 256.598 134.611 258.552 134.611H346.481C348.517 134.611 350.094 136.27 350.094 138.224C350.094 140.245 348.503 141.837 346.481 141.837H258.552C256.516 141.837 254.939 140.178 254.939 138.224Z" fill="#2868F2"/>
<path d="M430.213 140.774H358.966C357.531 140.774 356.416 139.605 356.416 138.224C356.416 136.789 357.585 135.674 358.966 135.674H430.213C431.647 135.674 432.763 136.842 432.763 138.224C432.763 139.658 431.647 140.774 430.213 140.774Z" fill="white"/>
<path fill-rule="evenodd" clip-rule="evenodd" d="M358.966 136.736C358.157 136.736 357.479 137.391 357.479 138.224C357.479 139.033 358.133 139.711 358.966 139.711H430.213C431.061 139.711 431.701 139.071 431.701 138.224C431.701 137.415 431.046 136.736 430.213 136.736H358.966ZM355.353 138.224C355.353 136.188 357.012 134.611 358.966 134.611H430.213C432.249 134.611 433.826 136.27 433.826 138.224C433.826 140.245 432.234 141.837 430.213 141.837H358.966C356.93 141.837 355.353 140.178 355.353 138.224Z" fill="#2868F2"/>
<path fill-rule="evenodd" clip-rule="evenodd" d="M255.682 146.246C255.682 145.659 256.158 145.184 256.745 145.184H324.644C325.231 145.184 325.707 145.659 325.707 146.246C325.707 146.833 325.231 147.309 324.644 147.309H256.745C256.158 147.309 255.682 146.833 255.682 146.246Z" fill="#2868F2"/>
<path d="M267.159 165.054H259.455V184.181H267.159V165.054Z" fill="#3D92F9"/>
<path fill-rule="evenodd" clip-rule="evenodd" d="M258.391 165.054C258.391 164.467 258.867 163.992 259.454 163.992H267.158C267.745 163.992 268.221 164.467 268.221 165.054V184.181C268.221 184.768 267.745 185.244 267.158 185.244H259.454C258.867 185.244 258.391 184.768 258.391 184.181V165.054ZM260.517 166.117V183.118H266.095V166.117H260.517Z" fill="#2868F2"/>
<path d="M277.678 156.66H269.974V184.181H277.678V156.66Z" fill="#3D92F9"/>
<path fill-rule="evenodd" clip-rule="evenodd" d="M268.911 156.66C268.911 156.073 269.387 155.597 269.974 155.597H277.678C278.265 155.597 278.741 156.073 278.741 156.66V184.181C278.741 184.768 278.265 185.244 277.678 185.244H269.974C269.387 185.244 268.911 184.768 268.911 184.181V156.66ZM271.037 157.723V183.118H276.615V157.723H271.037Z" fill="#2868F2"/>
<path d="M288.57 161.335H280.866V184.128H288.57V161.335Z" fill="#3D92F9"/>
<path fill-rule="evenodd" clip-rule="evenodd" d="M279.803 161.335C279.803 160.748 280.278 160.273 280.865 160.273H288.569C289.156 160.273 289.632 160.748 289.632 161.335V184.128C289.632 184.715 289.156 185.191 288.569 185.191H280.865C280.278 185.191 279.803 184.715 279.803 184.128V161.335ZM281.928 162.398V183.065H287.506V162.398H281.928Z" fill="#2868F2"/>
<path d="M430.213 167.073H342.283C340.848 167.073 339.733 165.904 339.733 164.523C339.733 163.089 340.902 161.973 342.283 161.973H430.213C431.647 161.973 432.763 163.142 432.763 164.523C432.763 165.958 431.647 167.073 430.213 167.073Z" fill="#DFE7F6"/>
<path fill-rule="evenodd" clip-rule="evenodd" d="M342.283 163.036C341.474 163.036 340.796 163.69 340.796 164.523C340.796 165.332 341.45 166.011 342.283 166.011H430.213C431.06 166.011 431.7 165.371 431.7 164.523C431.7 163.714 431.046 163.036 430.213 163.036H342.283ZM338.67 164.523C338.67 162.487 340.329 160.91 342.283 160.91H430.213C432.249 160.91 433.826 162.569 433.826 164.523C433.826 166.544 432.234 168.136 430.213 168.136H342.283C340.247 168.136 338.67 166.477 338.67 164.523Z" fill="#2868F2"/>
<path fill-rule="evenodd" clip-rule="evenodd" d="M306.368 171.855C306.368 171.268 306.844 170.792 307.431 170.792H432.764C433.35 170.792 433.826 171.268 433.826 171.855C433.826 172.442 433.35 172.918 432.764 172.918H307.431C306.844 172.918 306.368 172.442 306.368 171.855Z" fill="#2868F2"/>
<path fill-rule="evenodd" clip-rule="evenodd" d="M300.045 175.68C300.045 175.093 300.521 174.618 301.108 174.618H432.763C433.35 174.618 433.826 175.093 433.826 175.68C433.826 176.267 433.35 176.743 432.763 176.743H301.108C300.521 176.743 300.045 176.267 300.045 175.68Z" fill="#2868F2"/>
<path fill-rule="evenodd" clip-rule="evenodd" d="M391.216 179.506C391.216 178.919 391.691 178.443 392.278 178.443H432.763C433.35 178.443 433.826 178.919 433.826 179.506C433.826 180.093 433.35 180.568 432.763 180.568H392.278C391.691 180.568 391.216 180.093 391.216 179.506Z" fill="#2868F2"/>
<path fill-rule="evenodd" clip-rule="evenodd" d="M373.949 183.331C373.949 182.744 374.425 182.268 375.012 182.268H432.764C433.35 182.268 433.826 182.744 433.826 183.331C433.826 183.918 433.35 184.394 432.764 184.394H375.012C374.425 184.394 373.949 183.918 373.949 183.331Z" fill="#2868F2"/>
<path fill-rule="evenodd" clip-rule="evenodd" d="M302.967 183.331C302.967 182.744 303.443 182.268 304.029 182.268H371.557C372.144 182.268 372.62 182.744 372.62 183.331C372.62 183.918 372.144 184.394 371.557 184.394H304.029C303.443 184.394 302.967 183.918 302.967 183.331Z" fill="#2868F2"/>
<path fill-rule="evenodd" clip-rule="evenodd" d="M350.89 179.506C350.89 178.919 351.366 178.443 351.953 178.443H388.241C388.827 178.443 389.303 178.919 389.303 179.506C389.303 180.093 388.827 180.568 388.241 180.568H351.953C351.366 180.568 350.89 180.093 350.89 179.506Z" fill="#2868F2"/>
<path fill-rule="evenodd" clip-rule="evenodd" d="M314.071 179.506C314.071 178.919 314.547 178.443 315.133 178.443H348.286C348.873 178.443 349.349 178.919 349.349 179.506C349.349 180.093 348.873 180.568 348.286 180.568H315.133C314.547 180.568 314.071 180.093 314.071 179.506Z" fill="#2868F2"/>
<path d="M258.551 210.214H346.481C347.915 210.214 349.031 209.046 349.031 207.664C349.031 206.23 347.862 205.114 346.481 205.114H258.551C257.117 205.114 256.001 206.283 256.001 207.664C256.001 209.046 257.117 210.214 258.551 210.214Z" fill="white"/>
<path fill-rule="evenodd" clip-rule="evenodd" d="M254.939 207.664C254.939 205.711 256.516 204.051 258.552 204.051H346.481C348.435 204.051 350.094 205.629 350.094 207.664C350.094 209.618 348.517 211.277 346.481 211.277H258.552C256.516 211.277 254.939 209.618 254.939 207.664ZM258.552 206.177C257.718 206.177 257.064 206.855 257.064 207.664C257.064 208.473 257.718 209.152 258.552 209.152H346.481C347.315 209.152 347.969 208.473 347.969 207.664C347.969 206.831 347.29 206.177 346.481 206.177H258.552Z" fill="#2868F2"/>
<path fill-rule="evenodd" clip-rule="evenodd" d="M254.939 214.996C254.939 214.409 255.414 213.934 256.001 213.934H357.054C357.641 213.934 358.117 214.409 358.117 214.996C358.117 215.583 357.641 216.059 357.054 216.059H256.001C255.414 216.059 254.939 215.583 254.939 214.996Z" fill="#2868F2"/>
<path fill-rule="evenodd" clip-rule="evenodd" d="M254.939 218.822C254.939 218.235 255.414 217.759 256.001 217.759H366.033C366.62 217.759 367.096 218.235 367.096 218.822C367.096 219.409 366.62 219.884 366.033 219.884H256.001C255.414 219.884 254.939 219.409 254.939 218.822Z" fill="#2868F2"/>
<path fill-rule="evenodd" clip-rule="evenodd" d="M254.939 222.647C254.939 222.06 255.414 221.584 256.001 221.584H296.486C297.073 221.584 297.549 222.06 297.549 222.647C297.549 223.234 297.073 223.71 296.486 223.71H256.001C255.414 223.71 254.939 223.234 254.939 222.647Z" fill="#2868F2"/>
<path fill-rule="evenodd" clip-rule="evenodd" d="M254.939 226.472C254.939 225.885 255.414 225.409 256.001 225.409H313.753C314.34 225.409 314.816 225.885 314.816 226.472C314.816 227.059 314.34 227.535 313.753 227.535H256.001C255.414 227.535 254.939 227.059 254.939 226.472Z" fill="#2868F2"/>
<path fill-rule="evenodd" clip-rule="evenodd" d="M316.144 226.472C316.144 225.885 316.62 225.409 317.206 225.409H366.033C366.62 225.409 367.095 225.885 367.095 226.472C367.095 227.059 366.62 227.535 366.033 227.535H317.206C316.62 227.535 316.144 227.059 316.144 226.472Z" fill="#2868F2"/>
<path fill-rule="evenodd" clip-rule="evenodd" d="M299.515 222.647C299.515 222.06 299.99 221.584 300.577 221.584H336.812C337.399 221.584 337.874 222.06 337.874 222.647C337.874 223.234 337.399 223.71 336.812 223.71H300.577C299.99 223.71 299.515 223.234 299.515 222.647Z" fill="#2868F2"/>
<path fill-rule="evenodd" clip-rule="evenodd" d="M339.414 222.647C339.414 222.06 339.89 221.584 340.477 221.584H373.63C374.217 221.584 374.693 222.06 374.693 222.647C374.693 223.234 374.217 223.71 373.63 223.71H340.477C339.89 223.71 339.414 223.234 339.414 222.647Z" fill="#2868F2"/>
<path d="M512.315 112.562H475.762V119.15H512.315V112.562Z" fill="white"/>
<path fill-rule="evenodd" clip-rule="evenodd" d="M474.699 112.562C474.699 111.975 475.175 111.5 475.762 111.5H512.315C512.902 111.5 513.378 111.975 513.378 112.562V119.15C513.378 119.737 512.902 120.213 512.315 120.213H475.762C475.175 120.213 474.699 119.737 474.699 119.15V112.562ZM476.824 113.625V118.088H511.252V113.625H476.824Z" fill="#2868F2"/>
<path d="M479.428 116.547C479.839 116.547 480.172 116.214 480.172 115.803C480.172 115.392 479.839 115.059 479.428 115.059C479.017 115.059 478.684 115.392 478.684 115.803C478.684 116.214 479.017 116.547 479.428 116.547Z" fill="#2868F2"/>
<path d="M481.501 116.547C481.912 116.547 482.245 116.214 482.245 115.803C482.245 115.392 481.912 115.059 481.501 115.059C481.09 115.059 480.757 115.392 480.757 115.803C480.757 116.214 481.09 116.547 481.501 116.547Z" fill="#2868F2"/>
<path d="M483.571 116.547C483.982 116.547 484.315 116.214 484.315 115.803C484.315 115.392 483.982 115.059 483.571 115.059C483.161 115.059 482.828 115.392 482.828 115.803C482.828 116.214 483.161 116.547 483.571 116.547Z" fill="#2868F2"/>
<path d="M485.644 116.547C486.055 116.547 486.388 116.214 486.388 115.803C486.388 115.392 486.055 115.059 485.644 115.059C485.234 115.059 484.901 115.392 484.901 115.803C484.901 116.214 485.234 116.547 485.644 116.547Z" fill="#2868F2"/>
<path d="M487.716 116.547C488.126 116.547 488.459 116.214 488.459 115.803C488.459 115.392 488.126 115.059 487.716 115.059C487.305 115.059 486.972 115.392 486.972 115.803C486.972 116.214 487.305 116.547 487.716 116.547Z" fill="#2868F2"/>
<path d="M489.788 116.547C490.199 116.547 490.532 116.214 490.532 115.803C490.532 115.392 490.199 115.059 489.788 115.059C489.377 115.059 489.044 115.392 489.044 115.803C489.044 116.214 489.377 116.547 489.788 116.547Z" fill="#2868F2"/>
<path fill-rule="evenodd" clip-rule="evenodd" d="M509.127 116.547H496.536C496.111 116.547 495.792 116.228 495.792 115.803C495.792 115.378 496.111 115.059 496.536 115.059H509.127C509.552 115.059 509.871 115.378 509.871 115.803C509.871 116.228 509.552 116.547 509.127 116.547Z" fill="#2868F2"/>
<path d="M512.315 122.179H475.762V128.767H512.315V122.179Z" fill="white"/>
<path fill-rule="evenodd" clip-rule="evenodd" d="M474.699 122.179C474.699 121.592 475.175 121.116 475.762 121.116H512.315C512.902 121.116 513.378 121.592 513.378 122.179V128.767C513.378 129.354 512.902 129.829 512.315 129.829H475.762C475.175 129.829 474.699 129.354 474.699 128.767V122.179ZM476.824 123.241V127.704H511.252V123.241H476.824Z" fill="#2868F2"/>
<path d="M479.428 126.217C479.839 126.217 480.172 125.884 480.172 125.473C480.172 125.062 479.839 124.729 479.428 124.729C479.017 124.729 478.684 125.062 478.684 125.473C478.684 125.884 479.017 126.217 479.428 126.217Z" fill="#2868F2"/>
<path d="M481.501 126.217C481.912 126.217 482.245 125.884 482.245 125.473C482.245 125.062 481.912 124.729 481.501 124.729C481.09 124.729 480.757 125.062 480.757 125.473C480.757 125.884 481.09 126.217 481.501 126.217Z" fill="#2868F2"/>
<path d="M483.571 126.217C483.982 126.217 484.315 125.884 484.315 125.473C484.315 125.062 483.982 124.729 483.571 124.729C483.161 124.729 482.828 125.062 482.828 125.473C482.828 125.884 483.161 126.217 483.571 126.217Z" fill="#2868F2"/>
<path d="M485.645 126.217C486.055 126.217 486.388 125.884 486.388 125.473C486.388 125.062 486.055 124.729 485.645 124.729C485.234 124.729 484.901 125.062 484.901 125.473C484.901 125.884 485.234 126.217 485.645 126.217Z" fill="#2868F2"/>
<path d="M487.716 126.217C488.127 126.217 488.46 125.884 488.46 125.473C488.46 125.062 488.127 124.729 487.716 124.729C487.305 124.729 486.972 125.062 486.972 125.473C486.972 125.884 487.305 126.217 487.716 126.217Z" fill="#2868F2"/>
<path d="M489.788 126.217C490.199 126.217 490.532 125.884 490.532 125.473C490.532 125.062 490.199 124.729 489.788 124.729C489.377 124.729 489.044 125.062 489.044 125.473C489.044 125.884 489.377 126.217 489.788 126.217Z" fill="#2868F2"/>
<path fill-rule="evenodd" clip-rule="evenodd" d="M509.128 126.163H496.536C496.111 126.163 495.792 125.845 495.792 125.42C495.792 124.995 496.111 124.676 496.536 124.676H509.128C509.553 124.676 509.871 124.995 509.871 125.42C509.871 125.845 509.553 126.163 509.128 126.163Z" fill="#2868F2"/>
<path d="M512.315 131.795H475.762V138.383H512.315V131.795Z" fill="white"/>
<path fill-rule="evenodd" clip-rule="evenodd" d="M474.699 131.795C474.699 131.208 475.175 130.732 475.762 130.732H512.315C512.902 130.732 513.378 131.208 513.378 131.795V138.383C513.378 138.97 512.902 139.446 512.315 139.446H475.762C475.175 139.446 474.699 138.97 474.699 138.383V131.795ZM476.824 132.858V137.321H511.252V132.858H476.824Z" fill="#2868F2"/>
<path d="M479.428 135.833C479.839 135.833 480.172 135.5 480.172 135.089C480.172 134.678 479.839 134.345 479.428 134.345C479.017 134.345 478.684 134.678 478.684 135.089C478.684 135.5 479.017 135.833 479.428 135.833Z" fill="#2868F2"/>
<path d="M481.501 135.833C481.912 135.833 482.245 135.5 482.245 135.089C482.245 134.678 481.912 134.345 481.501 134.345C481.09 134.345 480.757 134.678 480.757 135.089C480.757 135.5 481.09 135.833 481.501 135.833Z" fill="#2868F2"/>
<path d="M483.571 135.833C483.982 135.833 484.315 135.5 484.315 135.089C484.315 134.678 483.982 134.345 483.571 134.345C483.161 134.345 482.828 134.678 482.828 135.089C482.828 135.5 483.161 135.833 483.571 135.833Z" fill="#2868F2"/>
<path d="M485.645 135.833C486.055 135.833 486.388 135.5 486.388 135.089C486.388 134.678 486.055 134.345 485.645 134.345C485.234 134.345 484.901 134.678 484.901 135.089C484.901 135.5 485.234 135.833 485.645 135.833Z" fill="#2868F2"/>
<path d="M487.716 135.833C488.127 135.833 488.46 135.5 488.46 135.089C488.46 134.678 488.127 134.345 487.716 134.345C487.305 134.345 486.972 134.678 486.972 135.089C486.972 135.5 487.305 135.833 487.716 135.833Z" fill="#2868F2"/>
<path d="M489.788 135.833C490.199 135.833 490.532 135.5 490.532 135.089C490.532 134.678 490.199 134.345 489.788 134.345C489.377 134.345 489.044 134.678 489.044 135.089C489.044 135.5 489.377 135.833 489.788 135.833Z" fill="#2868F2"/>
<path fill-rule="evenodd" clip-rule="evenodd" d="M509.128 135.833H496.536C496.111 135.833 495.792 135.514 495.792 135.089C495.792 134.664 496.111 134.345 496.536 134.345H509.128C509.553 134.345 509.871 134.664 509.871 135.089C509.871 135.461 509.553 135.833 509.128 135.833Z" fill="#2868F2"/>
<path d="M512.315 141.412H475.762V148H512.315V141.412Z" fill="white"/>
<path fill-rule="evenodd" clip-rule="evenodd" d="M474.699 141.412C474.699 140.825 475.175 140.349 475.762 140.349H512.315C512.902 140.349 513.378 140.825 513.378 141.412V148C513.378 148.587 512.902 149.063 512.315 149.063H475.762C475.175 149.063 474.699 148.587 474.699 148V141.412ZM476.824 142.474V146.937H511.252V142.474H476.824Z" fill="#2868F2"/>
<path d="M479.428 145.45C479.839 145.45 480.172 145.117 480.172 144.706C480.172 144.295 479.839 143.962 479.428 143.962C479.017 143.962 478.684 144.295 478.684 144.706C478.684 145.117 479.017 145.45 479.428 145.45Z" fill="#2868F2"/>
<path d="M481.501 145.45C481.912 145.45 482.245 145.116 482.245 144.706C482.245 144.295 481.912 143.962 481.501 143.962C481.09 143.962 480.757 144.295 480.757 144.706C480.757 145.116 481.09 145.45 481.501 145.45Z" fill="#2868F2"/>
<path d="M483.571 145.45C483.982 145.45 484.315 145.116 484.315 144.706C484.315 144.295 483.982 143.962 483.571 143.962C483.161 143.962 482.828 144.295 482.828 144.706C482.828 145.116 483.161 145.45 483.571 145.45Z" fill="#2868F2"/>
<path d="M485.645 145.45C486.055 145.45 486.388 145.116 486.388 144.706C486.388 144.295 486.055 143.962 485.645 143.962C485.234 143.962 484.901 144.295 484.901 144.706C484.901 145.116 485.234 145.45 485.645 145.45Z" fill="#2868F2"/>
<path d="M487.716 145.45C488.127 145.45 488.46 145.116 488.46 144.706C488.46 144.295 488.127 143.962 487.716 143.962C487.305 143.962 486.972 144.295 486.972 144.706C486.972 145.116 487.305 145.45 487.716 145.45Z" fill="#2868F2"/>
<path d="M489.788 145.45C490.199 145.45 490.532 145.116 490.532 144.706C490.532 144.295 490.199 143.962 489.788 143.962C489.377 143.962 489.044 144.295 489.044 144.706C489.044 145.116 489.377 145.45 489.788 145.45Z" fill="#2868F2"/>
<path fill-rule="evenodd" clip-rule="evenodd" d="M509.128 145.45H496.536C496.111 145.45 495.792 145.131 495.792 144.706C495.792 144.281 496.111 143.962 496.536 143.962H509.128C509.553 143.962 509.871 144.281 509.871 144.706C509.871 145.131 509.553 145.45 509.128 145.45Z" fill="#2868F2"/>
<path d="M512.315 160.06H475.762V166.648H512.315V160.06Z" fill="white"/>
<path fill-rule="evenodd" clip-rule="evenodd" d="M474.699 160.06C474.699 159.473 475.175 158.997 475.762 158.997H512.315C512.902 158.997 513.378 159.473 513.378 160.06V166.648C513.378 167.235 512.902 167.711 512.315 167.711H475.762C475.175 167.711 474.699 167.235 474.699 166.648V160.06ZM476.824 161.123V165.585H511.252V161.123H476.824Z" fill="#2868F2"/>
<path d="M479.428 164.098C479.839 164.098 480.172 163.765 480.172 163.354C480.172 162.943 479.839 162.61 479.428 162.61C479.017 162.61 478.684 162.943 478.684 163.354C478.684 163.765 479.017 164.098 479.428 164.098Z" fill="#2868F2"/>
<path d="M481.501 164.098C481.912 164.098 482.245 163.765 482.245 163.354C482.245 162.943 481.912 162.61 481.501 162.61C481.09 162.61 480.757 162.943 480.757 163.354C480.757 163.765 481.09 164.098 481.501 164.098Z" fill="#2868F2"/>
<path d="M483.571 164.098C483.982 164.098 484.315 163.765 484.315 163.354C484.315 162.943 483.982 162.61 483.571 162.61C483.161 162.61 482.828 162.943 482.828 163.354C482.828 163.765 483.161 164.098 483.571 164.098Z" fill="#2868F2"/>
<path d="M485.645 164.098C486.055 164.098 486.388 163.765 486.388 163.354C486.388 162.943 486.055 162.61 485.645 162.61C485.234 162.61 484.901 162.943 484.901 163.354C484.901 163.765 485.234 164.098 485.645 164.098Z" fill="#2868F2"/>
<path d="M487.716 164.098C488.127 164.098 488.46 163.765 488.46 163.354C488.46 162.943 488.127 162.61 487.716 162.61C487.305 162.61 486.972 162.943 486.972 163.354C486.972 163.765 487.305 164.098 487.716 164.098Z" fill="#2868F2"/>
<path d="M489.788 164.098C490.199 164.098 490.532 163.765 490.532 163.354C490.532 162.943 490.199 162.61 489.788 162.61C489.377 162.61 489.044 162.943 489.044 163.354C489.044 163.765 489.377 164.098 489.788 164.098Z" fill="#2868F2"/>
<path fill-rule="evenodd" clip-rule="evenodd" d="M509.128 164.098H496.536C496.111 164.098 495.792 163.779 495.792 163.354C495.792 162.929 496.111 162.61 496.536 162.61H509.128C509.553 162.61 509.871 162.929 509.871 163.354C509.871 163.779 509.553 164.098 509.128 164.098Z" fill="#2868F2"/>
<path d="M512.315 169.677H475.762V176.265H512.315V169.677Z" fill="white"/>
<path fill-rule="evenodd" clip-rule="evenodd" d="M474.699 169.677C474.699 169.09 475.175 168.614 475.762 168.614H512.315C512.902 168.614 513.378 169.09 513.378 169.677V176.265C513.378 176.852 512.902 177.327 512.315 177.327H475.762C475.175 177.327 474.699 176.852 474.699 176.265V169.677ZM476.825 170.739V175.202H511.252V170.739H476.825Z" fill="#2868F2"/>
<path d="M479.428 173.714C479.839 173.714 480.172 173.381 480.172 172.971C480.172 172.56 479.839 172.227 479.428 172.227C479.017 172.227 478.684 172.56 478.684 172.971C478.684 173.381 479.017 173.714 479.428 173.714Z" fill="#2868F2"/>
<path d="M481.501 173.715C481.912 173.715 482.245 173.381 482.245 172.971C482.245 172.56 481.912 172.227 481.501 172.227C481.09 172.227 480.757 172.56 480.757 172.971C480.757 173.381 481.09 173.715 481.501 173.715Z" fill="#2868F2"/>
<path d="M483.572 173.715C483.982 173.715 484.315 173.381 484.315 172.971C484.315 172.56 483.982 172.227 483.572 172.227C483.161 172.227 482.828 172.56 482.828 172.971C482.828 173.381 483.161 173.715 483.572 173.715Z" fill="#2868F2"/>
<path d="M485.645 173.715C486.055 173.715 486.388 173.381 486.388 172.971C486.388 172.56 486.055 172.227 485.645 172.227C485.234 172.227 484.901 172.56 484.901 172.971C484.901 173.381 485.234 173.715 485.645 173.715Z" fill="#2868F2"/>
<path d="M487.716 173.715C488.127 173.715 488.46 173.381 488.46 172.971C488.46 172.56 488.127 172.227 487.716 172.227C487.305 172.227 486.972 172.56 486.972 172.971C486.972 173.381 487.305 173.715 487.716 173.715Z" fill="#2868F2"/>
<path d="M489.788 173.715C490.199 173.715 490.532 173.381 490.532 172.971C490.532 172.56 490.199 172.227 489.788 172.227C489.377 172.227 489.044 172.56 489.044 172.971C489.044 173.381 489.377 173.715 489.788 173.715Z" fill="#2868F2"/>
<path fill-rule="evenodd" clip-rule="evenodd" d="M509.128 173.714H496.536C496.111 173.714 495.792 173.396 495.792 172.971C495.792 172.546 496.111 172.227 496.536 172.227H509.128C509.553 172.227 509.871 172.546 509.871 172.971C509.871 173.396 509.553 173.714 509.128 173.714Z" fill="#2868F2"/>
<path d="M512.315 179.346H475.762V185.934H512.315V179.346Z" fill="white"/>
<path fill-rule="evenodd" clip-rule="evenodd" d="M474.699 179.346C474.699 178.759 475.175 178.283 475.762 178.283H512.315C512.902 178.283 513.378 178.759 513.378 179.346V185.934C513.378 186.521 512.902 186.997 512.315 186.997H475.762C475.175 186.997 474.699 186.521 474.699 185.934V179.346ZM476.825 180.409V184.872H511.252V180.409H476.825Z" fill="#2868F2"/>
<path d="M479.428 183.384C479.839 183.384 480.172 183.051 480.172 182.64C480.172 182.229 479.839 181.896 479.428 181.896C479.017 181.896 478.684 182.229 478.684 182.64C478.684 183.051 479.017 183.384 479.428 183.384Z" fill="#2868F2"/>
<path d="M481.501 183.384C481.912 183.384 482.245 183.051 482.245 182.64C482.245 182.229 481.912 181.896 481.501 181.896C481.09 181.896 480.757 182.229 480.757 182.64C480.757 183.051 481.09 183.384 481.501 183.384Z" fill="#2868F2"/>
<path d="M483.572 183.384C483.982 183.384 484.315 183.051 484.315 182.64C484.315 182.229 483.982 181.896 483.572 181.896C483.161 181.896 482.828 182.229 482.828 182.64C482.828 183.051 483.161 183.384 483.572 183.384Z" fill="#2868F2"/>
<path d="M485.645 183.384C486.055 183.384 486.388 183.051 486.388 182.64C486.388 182.229 486.055 181.896 485.645 181.896C485.234 181.896 484.901 182.229 484.901 182.64C484.901 183.051 485.234 183.384 485.645 183.384Z" fill="#2868F2"/>
<path d="M487.716 183.384C488.127 183.384 488.46 183.051 488.46 182.64C488.46 182.229 488.127 181.896 487.716 181.896C487.305 181.896 486.972 182.229 486.972 182.64C486.972 183.051 487.305 183.384 487.716 183.384Z" fill="#2868F2"/>
<path d="M489.788 183.384C490.199 183.384 490.532 183.051 490.532 182.64C490.532 182.229 490.199 181.896 489.788 181.896C489.377 181.896 489.044 182.229 489.044 182.64C489.044 183.051 489.377 183.384 489.788 183.384Z" fill="#2868F2"/>
<path fill-rule="evenodd" clip-rule="evenodd" d="M509.128 183.331H496.536C496.111 183.331 495.792 183.012 495.792 182.587C495.792 182.162 496.111 181.843 496.536 181.843H509.128C509.553 181.843 509.871 182.162 509.871 182.587C509.871 183.012 509.553 183.331 509.128 183.331Z" fill="#2868F2"/>
<path d="M512.315 188.963H475.762V195.551H512.315V188.963Z" fill="white"/>
<path fill-rule="evenodd" clip-rule="evenodd" d="M474.699 188.963C474.699 188.376 475.175 187.9 475.762 187.9H512.315C512.902 187.9 513.378 188.376 513.378 188.963V195.551C513.378 196.138 512.902 196.613 512.315 196.613H475.762C475.175 196.613 474.699 196.138 474.699 195.551V188.963ZM476.825 190.025V194.488H511.252V190.025H476.825Z" fill="#2868F2"/>
<path d="M479.428 193C479.839 193 480.172 192.667 480.172 192.257C480.172 191.846 479.839 191.513 479.428 191.513C479.017 191.513 478.684 191.846 478.684 192.257C478.684 192.667 479.017 193 479.428 193Z" fill="#2868F2"/>
<path d="M481.501 193.001C481.912 193.001 482.245 192.667 482.245 192.257C482.245 191.846 481.912 191.513 481.501 191.513C481.09 191.513 480.757 191.846 480.757 192.257C480.757 192.667 481.09 193.001 481.501 193.001Z" fill="#2868F2"/>
<path d="M483.572 193.001C483.982 193.001 484.315 192.667 484.315 192.257C484.315 191.846 483.982 191.513 483.572 191.513C483.161 191.513 482.828 191.846 482.828 192.257C482.828 192.667 483.161 193.001 483.572 193.001Z" fill="#2868F2"/>
<path d="M485.645 193.001C486.055 193.001 486.388 192.667 486.388 192.257C486.388 191.846 486.055 191.513 485.645 191.513C485.234 191.513 484.901 191.846 484.901 192.257C484.901 192.667 485.234 193.001 485.645 193.001Z" fill="#2868F2"/>
<path d="M487.716 193.001C488.127 193.001 488.46 192.667 488.46 192.257C488.46 191.846 488.127 191.513 487.716 191.513C487.305 191.513 486.972 191.846 486.972 192.257C486.972 192.667 487.305 193.001 487.716 193.001Z" fill="#2868F2"/>
<path d="M489.788 193.001C490.199 193.001 490.532 192.667 490.532 192.257C490.532 191.846 490.199 191.513 489.788 191.513C489.377 191.513 489.044 191.846 489.044 192.257C489.044 192.667 489.377 193.001 489.788 193.001Z" fill="#2868F2"/>
<path fill-rule="evenodd" clip-rule="evenodd" d="M509.128 192.947H496.536C496.111 192.947 495.792 192.629 495.792 192.204C495.792 191.778 496.111 191.46 496.536 191.46H509.128C509.553 191.46 509.871 191.778 509.871 192.204C509.871 192.629 509.553 192.947 509.128 192.947Z" fill="#2868F2"/>
<path d="M512.315 207.611H475.762V214.199H512.315V207.611Z" fill="white"/>
<path fill-rule="evenodd" clip-rule="evenodd" d="M474.699 207.611C474.699 207.024 475.175 206.548 475.762 206.548H512.315C512.902 206.548 513.378 207.024 513.378 207.611V214.199C513.378 214.786 512.902 215.262 512.315 215.262H475.762C475.175 215.262 474.699 214.786 474.699 214.199V207.611ZM476.824 208.674V213.136H511.252V208.674H476.824Z" fill="#2868F2"/>
<path d="M479.428 211.649C479.839 211.649 480.172 211.316 480.172 210.905C480.172 210.494 479.839 210.161 479.428 210.161C479.017 210.161 478.684 210.494 478.684 210.905C478.684 211.316 479.017 211.649 479.428 211.649Z" fill="#2868F2"/>
<path d="M481.501 211.649C481.912 211.649 482.245 211.316 482.245 210.905C482.245 210.494 481.912 210.161 481.501 210.161C481.09 210.161 480.757 210.494 480.757 210.905C480.757 211.316 481.09 211.649 481.501 211.649Z" fill="#2868F2"/>
<path d="M483.571 211.649C483.982 211.649 484.315 211.316 484.315 210.905C484.315 210.494 483.982 210.161 483.571 210.161C483.161 210.161 482.828 210.494 482.828 210.905C482.828 211.316 483.161 211.649 483.571 211.649Z" fill="#2868F2"/>
<path d="M485.645 211.649C486.055 211.649 486.388 211.316 486.388 210.905C486.388 210.494 486.055 210.161 485.645 210.161C485.234 210.161 484.901 210.494 484.901 210.905C484.901 211.316 485.234 211.649 485.645 211.649Z" fill="#2868F2"/>
<path d="M487.716 211.649C488.127 211.649 488.46 211.316 488.46 210.905C488.46 210.494 488.127 210.161 487.716 210.161C487.305 210.161 486.972 210.494 486.972 210.905C486.972 211.316 487.305 211.649 487.716 211.649Z" fill="#2868F2"/>
<path d="M489.788 211.649C490.199 211.649 490.532 211.316 490.532 210.905C490.532 210.494 490.199 210.161 489.788 210.161C489.377 210.161 489.044 210.494 489.044 210.905C489.044 211.316 489.377 211.649 489.788 211.649Z" fill="#2868F2"/>
<path fill-rule="evenodd" clip-rule="evenodd" d="M509.128 211.596H496.536C496.111 211.596 495.792 211.277 495.792 210.852C495.792 210.427 496.111 210.108 496.536 210.108H509.128C509.553 210.108 509.871 210.427 509.871 210.852C509.871 211.277 509.553 211.596 509.128 211.596Z" fill="#2868F2"/>
<path d="M512.315 217.228H475.762V223.816H512.315V217.228Z" fill="white"/>
<path fill-rule="evenodd" clip-rule="evenodd" d="M474.699 217.228C474.699 216.641 475.175 216.165 475.762 216.165H512.315C512.902 216.165 513.378 216.641 513.378 217.228V223.816C513.378 224.403 512.902 224.878 512.315 224.878H475.762C475.175 224.878 474.699 224.403 474.699 223.816V217.228ZM476.825 218.29V222.753H511.252V218.29H476.825Z" fill="#2868F2"/>
<path d="M479.428 221.266C479.839 221.266 480.172 220.933 480.172 220.522C480.172 220.111 479.839 219.778 479.428 219.778C479.017 219.778 478.684 220.111 478.684 220.522C478.684 220.933 479.017 221.266 479.428 221.266Z" fill="#2868F2"/>
<path d="M481.501 221.265C481.912 221.265 482.245 220.932 482.245 220.522C482.245 220.111 481.912 219.778 481.501 219.778C481.09 219.778 480.757 220.111 480.757 220.522C480.757 220.932 481.09 221.265 481.501 221.265Z" fill="#2868F2"/>
<path d="M483.572 221.265C483.982 221.265 484.315 220.932 484.315 220.522C484.315 220.111 483.982 219.778 483.572 219.778C483.161 219.778 482.828 220.111 482.828 220.522C482.828 220.932 483.161 221.265 483.572 221.265Z" fill="#2868F2"/>
<path d="M485.645 221.265C486.055 221.265 486.388 220.932 486.388 220.522C486.388 220.111 486.055 219.778 485.645 219.778C485.234 219.778 484.901 220.111 484.901 220.522C484.901 220.932 485.234 221.265 485.645 221.265Z" fill="#2868F2"/>
<path d="M487.716 221.265C488.127 221.265 488.46 220.932 488.46 220.522C488.46 220.111 488.127 219.778 487.716 219.778C487.305 219.778 486.972 220.111 486.972 220.522C486.972 220.932 487.305 221.265 487.716 221.265Z" fill="#2868F2"/>
<path d="M489.788 221.265C490.199 221.265 490.532 220.932 490.532 220.522C490.532 220.111 490.199 219.778 489.788 219.778C489.377 219.778 489.044 220.111 489.044 220.522C489.044 220.932 489.377 221.265 489.788 221.265Z" fill="#2868F2"/>
<path fill-rule="evenodd" clip-rule="evenodd" d="M509.128 221.265H496.536C496.111 221.265 495.792 220.947 495.792 220.522C495.792 220.097 496.111 219.778 496.536 219.778H509.128C509.553 219.778 509.871 220.097 509.871 220.522C509.871 220.894 509.553 221.265 509.128 221.265Z" fill="#2868F2"/>
<path d="M512.315 226.844H475.762V233.432H512.315V226.844Z" fill="white"/>
<path fill-rule="evenodd" clip-rule="evenodd" d="M474.699 226.844C474.699 226.257 475.175 225.781 475.762 225.781H512.315C512.902 225.781 513.378 226.257 513.378 226.844V233.432C513.378 234.019 512.902 234.495 512.315 234.495H475.762C475.175 234.495 474.699 234.019 474.699 233.432V226.844ZM476.825 227.907V232.369H511.252V227.907H476.825Z" fill="#2868F2"/>
<path d="M479.428 230.882C479.839 230.882 480.172 230.549 480.172 230.138C480.172 229.727 479.839 229.394 479.428 229.394C479.017 229.394 478.684 229.727 478.684 230.138C478.684 230.549 479.017 230.882 479.428 230.882Z" fill="#2868F2"/>
<path d="M481.501 230.882C481.912 230.882 482.245 230.549 482.245 230.138C482.245 229.727 481.912 229.394 481.501 229.394C481.09 229.394 480.757 229.727 480.757 230.138C480.757 230.549 481.09 230.882 481.501 230.882Z" fill="#2868F2"/>
<path d="M483.572 230.882C483.982 230.882 484.315 230.549 484.315 230.138C484.315 229.727 483.982 229.394 483.572 229.394C483.161 229.394 482.828 229.727 482.828 230.138C482.828 230.549 483.161 230.882 483.572 230.882Z" fill="#2868F2"/>
<path d="M485.645 230.882C486.055 230.882 486.388 230.549 486.388 230.138C486.388 229.727 486.055 229.394 485.645 229.394C485.234 229.394 484.901 229.727 484.901 230.138C484.901 230.549 485.234 230.882 485.645 230.882Z" fill="#2868F2"/>
<path d="M487.716 230.882C488.127 230.882 488.46 230.549 488.46 230.138C488.46 229.727 488.127 229.394 487.716 229.394C487.305 229.394 486.972 229.727 486.972 230.138C486.972 230.549 487.305 230.882 487.716 230.882Z" fill="#2868F2"/>
<path d="M489.788 230.882C490.199 230.882 490.532 230.549 490.532 230.138C490.532 229.727 490.199 229.394 489.788 229.394C489.377 229.394 489.044 229.727 489.044 230.138C489.044 230.549 489.377 230.882 489.788 230.882Z" fill="#2868F2"/>
<path fill-rule="evenodd" clip-rule="evenodd" d="M509.128 230.882H496.536C496.111 230.882 495.792 230.563 495.792 230.138C495.792 229.713 496.111 229.394 496.536 229.394H509.128C509.553 229.394 509.871 229.713 509.871 230.138C509.871 230.563 509.553 230.882 509.128 230.882Z" fill="#2868F2"/>
<path d="M512.315 236.461H475.762V243.049H512.315V236.461Z" fill="white"/>
<path fill-rule="evenodd" clip-rule="evenodd" d="M474.699 236.461C474.699 235.874 475.175 235.398 475.762 235.398H512.315C512.902 235.398 513.378 235.874 513.378 236.461V243.049C513.378 243.636 512.902 244.111 512.315 244.111H475.762C475.175 244.111 474.699 243.636 474.699 243.049V236.461ZM476.825 237.523V241.986H511.252V237.523H476.825Z" fill="#2868F2"/>
<path d="M479.428 240.498C479.839 240.498 480.172 240.165 480.172 239.755C480.172 239.344 479.839 239.011 479.428 239.011C479.017 239.011 478.684 239.344 478.684 239.755C478.684 240.165 479.017 240.498 479.428 240.498Z" fill="#2868F2"/>
<path d="M481.501 240.498C481.912 240.498 482.245 240.165 482.245 239.755C482.245 239.344 481.912 239.011 481.501 239.011C481.09 239.011 480.757 239.344 480.757 239.755C480.757 240.165 481.09 240.498 481.501 240.498Z" fill="#2868F2"/>
<path d="M483.572 240.498C483.982 240.498 484.315 240.165 484.315 239.755C484.315 239.344 483.982 239.011 483.572 239.011C483.161 239.011 482.828 239.344 482.828 239.755C482.828 240.165 483.161 240.498 483.572 240.498Z" fill="#2868F2"/>
<path d="M485.645 240.498C486.055 240.498 486.388 240.165 486.388 239.755C486.388 239.344 486.055 239.011 485.645 239.011C485.234 239.011 484.901 239.344 484.901 239.755C484.901 240.165 485.234 240.498 485.645 240.498Z" fill="#2868F2"/>
<path d="M487.716 240.498C488.127 240.498 488.46 240.165 488.46 239.755C488.46 239.344 488.127 239.011 487.716 239.011C487.305 239.011 486.972 239.344 486.972 239.755C486.972 240.165 487.305 240.498 487.716 240.498Z" fill="#2868F2"/>
<path d="M489.788 240.498C490.199 240.498 490.532 240.165 490.532 239.755C490.532 239.344 490.199 239.011 489.788 239.011C489.377 239.011 489.044 239.344 489.044 239.755C489.044 240.165 489.377 240.498 489.788 240.498Z" fill="#2868F2"/>
<path fill-rule="evenodd" clip-rule="evenodd" d="M509.128 240.498H496.536C496.111 240.498 495.792 240.18 495.792 239.755C495.792 239.33 496.111 239.011 496.536 239.011H509.128C509.553 239.011 509.871 239.33 509.871 239.755C509.871 240.18 509.553 240.498 509.128 240.498Z" fill="#2868F2"/>
<path fill-rule="evenodd" clip-rule="evenodd" d="M200.746 354.037H290.641C292.713 354.037 294.413 352.337 294.413 350.265V302.979C294.413 300.907 292.713 299.207 290.641 299.207H200.746C198.673 299.207 196.973 300.907 196.973 302.979V350.265C196.973 352.39 198.62 354.037 200.746 354.037Z" fill="white"/>
<path fill-rule="evenodd" clip-rule="evenodd" d="M195.622 302.979C195.622 300.161 197.927 297.856 200.745 297.856H290.641C293.459 297.856 295.764 300.161 295.764 302.979V350.265C295.764 353.083 293.459 355.388 290.641 355.388H200.745C197.874 355.388 195.622 353.136 195.622 350.265V302.979ZM200.745 300.558C199.419 300.558 198.324 301.653 198.324 302.979V350.265C198.324 351.644 199.366 352.686 200.745 352.686H290.641C291.967 352.686 293.062 351.591 293.062 350.265V302.979C293.062 301.653 291.967 300.558 290.641 300.558H200.745Z" fill="#2868F2"/>
<path fill-rule="evenodd" clip-rule="evenodd" d="M204.571 354.037H290.641C292.713 354.037 294.413 352.337 294.413 350.265V306.061C294.413 303.989 292.713 302.289 290.641 302.289H204.571C202.499 302.289 200.798 303.989 200.798 306.061V350.265C200.798 352.39 202.445 354.037 204.571 354.037Z" fill="#DFE7F6"/>
<path fill-rule="evenodd" clip-rule="evenodd" d="M199.447 306.061C199.447 303.243 201.752 300.938 204.571 300.938H290.641C293.459 300.938 295.764 303.243 295.764 306.061V350.265C295.764 353.083 293.459 355.388 290.641 355.388H204.571C201.699 355.388 199.447 353.136 199.447 350.265V306.061ZM204.571 303.64C203.245 303.64 202.149 304.735 202.149 306.061V350.265C202.149 351.644 203.191 352.686 204.571 352.686H290.641C291.967 352.686 293.062 351.591 293.062 350.265V306.061C293.062 304.735 291.967 303.64 290.641 303.64H204.571Z" fill="#2868F2"/>
<path d="M238.713 372.479L252.42 372.479L252.42 331.622L238.713 331.622L238.713 372.479Z" fill="white"/>
<path fill-rule="evenodd" clip-rule="evenodd" d="M253.771 372.479C253.771 373.225 253.166 373.83 252.42 373.83L238.713 373.83C237.967 373.83 237.362 373.225 237.362 372.479L237.362 331.622C237.362 330.876 237.967 330.271 238.713 330.271L252.42 330.271C253.166 330.271 253.771 330.876 253.771 331.622L253.771 372.479ZM251.069 371.128L251.069 332.973L240.064 332.973L240.064 371.128L251.069 371.128Z" fill="#2868F2"/>
<path d="M241.544 372.479L252.435 372.479L252.435 331.622L241.544 331.622L241.544 372.479Z" fill="white"/>
<path fill-rule="evenodd" clip-rule="evenodd" d="M253.786 372.479C253.786 373.225 253.181 373.83 252.435 373.83L241.544 373.83C240.798 373.83 240.193 373.225 240.193 372.479L240.193 331.622C240.193 330.876 240.798 330.271 241.544 330.271L252.435 330.271C253.181 330.271 253.786 330.876 253.786 331.622L253.786 372.479ZM251.084 371.128L251.084 332.973L242.895 332.973L242.895 371.128L251.084 371.128Z" fill="#2868F2"/>
<path d="M214.763 377.374L276.606 377.374L276.606 367.757L214.763 367.757L214.763 377.374Z" fill="white"/>
<path fill-rule="evenodd" clip-rule="evenodd" d="M277.956 377.374C277.956 378.12 277.352 378.725 276.606 378.725L214.763 378.725C214.016 378.725 213.412 378.12 213.412 377.374L213.412 367.757C213.412 367.011 214.016 366.406 214.763 366.406L276.606 366.406C277.352 366.406 277.956 367.011 277.956 367.757L277.956 377.374ZM275.255 376.023L275.255 369.108L216.113 369.108L216.113 376.023L275.255 376.023Z" fill="#2868F2"/>
<path d="M217.612 377.374L276.586 377.374L276.586 367.757L217.612 367.757L217.612 377.374Z" fill="white"/>
<path fill-rule="evenodd" clip-rule="evenodd" d="M277.937 377.374C277.937 378.12 277.332 378.725 276.586 378.725L217.612 378.725C216.866 378.725 216.261 378.12 216.261 377.374L216.261 367.757C216.261 367.011 216.866 366.406 217.612 366.406L276.586 366.406C277.332 366.406 277.937 367.011 277.937 367.757L277.937 377.374ZM275.235 376.023L275.235 369.108L218.963 369.108L218.963 376.023L275.235 376.023Z" fill="#2868F2"/>
<path fill-rule="evenodd" clip-rule="evenodd" d="M371.664 381.345H51.1326C48.4761 381.345 46.351 379.22 46.351 376.564V374.864C46.351 372.207 48.4761 370.082 51.1326 370.082H371.664C374.321 370.082 376.446 372.207 376.446 374.864V376.564C376.446 379.167 374.321 381.345 371.664 381.345Z" fill="white"/>
<path fill-rule="evenodd" clip-rule="evenodd" d="M51.1326 371.433C49.2223 371.433 47.7019 372.953 47.7019 374.864V376.564C47.7019 378.474 49.2223 379.994 51.1326 379.994H371.664C373.565 379.994 375.095 378.431 375.095 376.564V374.864C375.095 372.953 373.575 371.433 371.664 371.433H51.1326ZM45 374.864C45 371.461 47.73 368.731 51.1326 368.731H371.664C375.067 368.731 377.797 371.461 377.797 374.864V376.564C377.797 379.903 375.077 382.696 371.664 382.696H51.1326C47.73 382.696 45 379.966 45 376.564V374.864Z" fill="#2868F2"/>
<path d="M294.414 330.872H405.136V281.408" stroke="#2868F2" stroke-width="3" stroke-miterlimit="10" stroke-linecap="round" stroke-linejoin="round" stroke-dasharray="10 10"/>
<path d="M576.278 207.683C569.424 207.683 563.048 211.03 559.117 216.609C557.31 215.918 555.398 215.547 553.485 215.547C544.719 215.547 537.653 222.613 537.653 231.379C537.653 231.91 537.706 232.389 537.759 232.92C528.195 233.557 520.81 241.474 520.81 251.037C520.81 261.026 528.833 269.101 538.821 269.208H539.034H595.67C607.252 269.208 616.656 259.804 616.656 248.221C616.656 237.223 608.156 228.138 597.211 227.341C596.52 216.29 587.382 207.683 576.278 207.683Z" fill="#DFE7F6"/>
<defs>
<linearGradient id="paint0_linear_1_920" x1="228.418" y1="377.088" x2="175.434" y2="317.85" gradientUnits="userSpaceOnUse">
<stop stop-color="#2C2AD2"/>
<stop offset="0.4211" stop-color="#2BBAFE"/>
</linearGradient>
<linearGradient id="paint1_linear_1_920" x1="228.418" y1="377.088" x2="175.434" y2="317.85" gradientUnits="userSpaceOnUse">
<stop/>
<stop offset="1" stop-opacity="0"/>
</linearGradient>
<linearGradient id="paint2_linear_1_920" x1="163.009" y1="436.102" x2="163.009" y2="320.766" gradientUnits="userSpaceOnUse">
<stop stop-color="#2C2AD2"/>
<stop offset="1" stop-color="#2BBAFE"/>
</linearGradient>
<linearGradient id="paint3_linear_1_920" x1="181.59" y1="438.942" x2="181.59" y2="317.034" gradientUnits="userSpaceOnUse">
<stop stop-color="#2C2AD2"/>
<stop offset="1" stop-color="#2BBAFE"/>
</linearGradient>
<linearGradient id="paint4_linear_1_920" x1="152.244" y1="438.942" x2="152.244" y2="317.033" gradientUnits="userSpaceOnUse">
<stop stop-color="#2C2AD2"/>
<stop offset="1" stop-color="#2BBAFE"/>
</linearGradient>
<linearGradient id="paint5_linear_1_920" x1="148.989" y1="352.943" x2="148.989" y2="321.979" gradientUnits="userSpaceOnUse">
<stop stop-color="#2CB0FB" stop-opacity="0.54"/>
<stop offset="1" stop-color="#2C4ADC" stop-opacity="0.49"/>
</linearGradient>
<linearGradient id="paint6_linear_1_920" x1="178.07" y1="352.943" x2="178.07" y2="321.979" gradientUnits="userSpaceOnUse">
<stop stop-color="#2CB0FB" stop-opacity="0.54"/>
<stop offset="1" stop-color="#2C4ADC" stop-opacity="0.49"/>
</linearGradient>
<linearGradient id="paint7_linear_1_920" x1="126.679" y1="356.015" x2="157.737" y2="356.015" gradientUnits="userSpaceOnUse">
<stop stop-color="#2C2AD2"/>
<stop offset="1" stop-color="#2BBAFE"/>
</linearGradient>
</defs>
</svg>
