<svg width="32" height="32" viewBox="0 0 32 32" fill="none" xmlns="http://www.w3.org/2000/svg">
<path d="M18.7868 25.2498H2.7453C2.32394 25.2498 2 24.8932 2 24.43V6.81984C2.03233 6.35634 2.35649 6 2.7453 6H18.7868C19.2081 6 19.5321 6.35658 19.5321 6.81984V24.4656C19.5323 24.8936 19.2081 25.2499 18.787 25.2499L18.7868 25.2498ZM3.49066 23.6101H18.0414L18.0412 7.63981H3.49044L3.49066 23.6101Z" fill="#2868F3"/>
<path d="M29.8384 16.1951C29.8384 16.1596 29.8707 16.1596 29.8707 16.1596C29.8707 16.1596 29.8707 16.124 29.9031 16.124C29.9031 16.124 29.9031 16.0885 29.9354 16.0885C29.9354 16.0885 29.9354 16.0529 29.9677 16.0529C29.9677 16.0529 29.9677 16.0173 30 16.0173V15.9818V15.9462V15.9107V15.8751V15.8396V15.804V15.7684V15.7329V15.6973V15.6618V15.6262V15.5906V15.5551V15.5195V15.484V15.4484V15.4129V15.3773C30 15.3773 30 15.3417 29.9677 15.3417C29.9677 15.3417 29.9677 15.3062 29.9354 15.3062C29.9354 15.3062 29.9354 15.2706 29.9031 15.2706C29.9031 15.2706 29.9031 15.2351 29.8707 15.2351C29.8707 15.2351 29.8707 15.1995 29.8384 15.1995L29.8061 15.1639H29.7737L27.084 12.5973C26.7598 12.3121 26.3061 12.3476 26.0468 12.6687C25.7875 13.0252 25.8199 13.5243 26.1117 13.8095L27.2784 14.9504L21.121 14.9474C20.6997 14.9474 20.3757 15.304 20.3757 15.7672C20.3757 16.2307 20.6999 16.5871 21.121 16.5871H27.3432L26.1765 17.7279C25.8524 18.0132 25.8524 18.5478 26.1116 18.8688C26.2737 19.0471 26.4681 19.154 26.6625 19.154C26.8246 19.154 27.019 19.0827 27.1485 18.9402L29.8383 16.3735H29.8707C29.8383 16.2308 29.8383 16.2308 29.8383 16.1952L29.8384 16.1951Z" fill="#2868F3"/>
<path d="M14.8009 13.5172H6.76398C6.34262 13.5172 6.01868 13.1606 6.01868 12.6973C6.01868 12.2338 6.34284 11.8775 6.76398 11.8775H14.7685C15.1899 11.8775 15.5138 12.2341 15.5138 12.6973C15.5464 13.125 15.1899 13.5172 14.8009 13.5172H14.8009Z" fill="#2868F3"/>
<path d="M14.8009 19.3636H6.76398C6.34262 19.3636 6.01868 19.007 6.01868 18.5437C6.01868 18.0802 6.34284 17.7239 6.76398 17.7239H14.7685C15.1899 17.7239 15.5138 18.0805 15.5138 18.5437C15.5464 19.007 15.1899 19.3636 14.8009 19.3636H14.8009Z" fill="#2868F3"/>
</svg>
